<svg width="73" height="56" viewBox="0 0 73 56" fill="none" xmlns="http://www.w3.org/2000/svg">
<path d="M48.5 16C48.5 9.12386 42.8761 3.5 36 3.5C29.1239 3.5 23.5 9.12386 23.5 16C23.5 22.8761 29.1239 28.5 36 28.5C42.8761 28.5 48.5 22.8761 48.5 16ZM22.5 16C22.5 8.57614 28.5761 2.5 36 2.5C43.4239 2.5 49.5 8.57614 49.5 16C49.5 23.4239 43.4239 29.5 36 29.5C28.5761 29.5 22.5 23.4239 22.5 16Z" fill="white" stroke="white"/>
<path d="M44 15H37V8H35V15H28V17H35V24H37V17H44V15Z" fill="white"/>
<path d="M10.34 51H12.4L7.32 36.88H5.24L0.16 51H2.2L3.6 46.94H8.92L10.34 51ZM6.3 38.82C6.3 38.82 6.6 40.1 6.84 40.82L8.4 45.3H4.12L5.7 40.82C5.94 40.1 6.26 38.82 6.26 38.82H6.3ZM14.9786 52.84L14.3386 54.36C15.3186 54.86 16.5786 55.2 17.7986 55.2C20.3586 55.2 22.8986 53.92 22.8986 50.58V40.88H21.0386V41.82C21.0386 42 21.0586 42.14 21.0586 42.14H21.0186C21.0186 42.14 20.2786 40.64 17.8386 40.64C15.0386 40.64 13.4186 42.8 13.4186 45.7C13.4186 48.62 15.1186 50.88 17.9386 50.88C19.3986 50.88 20.3386 50.3 20.9386 49.3H20.9786C20.9786 49.3 20.9586 49.62 20.9586 49.94V50.68C20.9586 52.74 19.5186 53.52 17.7586 53.52C16.2386 53.52 14.9786 52.84 14.9786 52.84ZM18.3186 49.2C16.4986 49.2 15.3786 47.76 15.3786 45.66C15.3786 43.6 16.3786 42.32 18.1386 42.32C19.7186 42.32 20.9986 43.08 20.9986 45.72C20.9986 48.36 19.7186 49.2 18.3186 49.2ZM25.9341 51H27.8741V46.86C27.8741 46.24 27.9341 45.62 28.1141 45.04C28.5741 43.54 29.7141 42.66 30.9541 42.66C31.2541 42.66 31.5141 42.72 31.5141 42.72V40.8C31.5141 40.8 31.2741 40.76 31.0141 40.76C29.4541 40.76 28.2741 41.92 27.8141 43.4H27.7741C27.7741 43.4 27.8141 43.06 27.8141 42.64V40.88H25.9341V51ZM32.6755 45.94C32.6755 48.94 34.8555 51.24 38.0355 51.24C40.4555 51.24 41.9555 49.8 41.9555 49.8L41.1555 48.38C41.1555 48.38 39.8955 49.56 38.1555 49.56C36.3555 49.56 34.7755 48.44 34.6755 46.22H42.0555C42.0555 46.22 42.1155 45.64 42.1155 45.38C42.1155 42.76 40.5955 40.64 37.7355 40.64C34.8555 40.64 32.6755 42.72 32.6755 45.94ZM34.7355 44.76C35.0155 43.1 36.2155 42.18 37.6955 42.18C38.9955 42.18 40.0755 43.02 40.1355 44.76H34.7355ZM45.3692 52.84L44.7292 54.36C45.7092 54.86 46.9692 55.2 48.1892 55.2C50.7492 55.2 53.2892 53.92 53.2892 50.58V40.88H51.4292V41.82C51.4292 42 51.4492 42.14 51.4492 42.14H51.4092C51.4092 42.14 50.6692 40.64 48.2292 40.64C45.4292 40.64 43.8092 42.8 43.8092 45.7C43.8092 48.62 45.5092 50.88 48.3292 50.88C49.7892 50.88 50.7292 50.3 51.3292 49.3H51.3692C51.3692 49.3 51.3492 49.62 51.3492 49.94V50.68C51.3492 52.74 49.9092 53.52 48.1492 53.52C46.6292 53.52 45.3692 52.84 45.3692 52.84ZM48.7092 49.2C46.8892 49.2 45.7692 47.76 45.7692 45.66C45.7692 43.6 46.7692 42.32 48.5292 42.32C50.1092 42.32 51.3892 43.08 51.3892 45.72C51.3892 48.36 50.1092 49.2 48.7092 49.2ZM55.5047 48.16C55.5047 50.18 57.2047 51.24 58.9447 51.24C61.3647 51.24 62.1847 49.24 62.1847 49.24H62.2247C62.2247 49.24 62.1847 49.58 62.1847 50.04V51H63.9847V44.6C63.9847 42.04 62.5447 40.64 59.9847 40.64C57.6647 40.64 56.2047 41.84 56.2047 41.84L57.0047 43.26C57.0047 43.26 58.2647 42.28 59.8247 42.28C61.1047 42.28 62.0447 42.84 62.0447 44.5V44.68H61.6047C59.9047 44.68 55.5047 44.82 55.5047 48.16ZM57.4647 48.06C57.4647 46.24 60.1047 46.14 61.5647 46.14H62.0647V46.46C62.0647 47.96 61.0047 49.68 59.3647 49.68C58.1047 49.68 57.4647 48.88 57.4647 48.06ZM66.8911 51H68.8311V46.86C68.8311 46.24 68.8911 45.62 69.0711 45.04C69.5311 43.54 70.6711 42.66 71.9111 42.66C72.2111 42.66 72.4711 42.72 72.4711 42.72V40.8C72.4711 40.8 72.2311 40.76 71.9711 40.76C70.4111 40.76 69.2311 41.92 68.7711 43.4H68.7311C68.7311 43.4 68.7711 43.06 68.7711 42.64V40.88H66.8911V51Z" fill="white"/>
</svg>
