<svg width="40" height="32" viewBox="0 0 40 32" fill="none" xmlns="http://www.w3.org/2000/svg">
<g clip-path="url(#clip0)">
<path d="M39.9459 3.7905C38.8489 5.42222 37.5031 6.81318 35.9084 7.96339C35.9241 8.27187 35.932 8.62053 35.932 9.00938C35.932 11.1699 35.617 13.333 34.987 15.4987C34.3571 17.6644 33.3948 19.7374 32.1001 21.7177C30.8055 23.6979 29.2634 25.4522 27.4738 26.9806C25.6842 28.509 23.5329 29.7277 21.0201 30.6366C18.5073 31.5456 15.8143 32 12.941 32C8.45668 32 4.32712 30.7894 0.552246 28.3683C1.22224 28.4428 1.86482 28.4801 2.47999 28.4801C6.22623 28.4801 9.57223 27.3262 12.518 25.0184C10.7713 24.9864 9.20696 24.4487 7.82505 23.4053C6.44314 22.362 5.49214 21.0288 4.97205 19.4057C5.48612 19.5036 5.99349 19.5526 6.49417 19.5526C7.21485 19.5526 7.92399 19.4586 8.62159 19.2706C6.75753 18.8973 5.21113 17.9689 3.98239 16.4853C2.7537 15.0018 2.13935 13.2896 2.13935 11.3486V11.2486C3.28352 11.8821 4.50396 12.2191 5.80066 12.2595C4.69641 11.5233 3.8209 10.5634 3.17413 9.37955C2.52733 8.19574 2.20393 6.91466 2.20393 5.53629C2.20393 4.08257 2.5682 2.72889 3.29676 1.47523C5.32389 3.96285 7.78019 5.95103 10.6657 7.43978C13.5512 8.92854 16.6468 9.75536 19.9524 9.92022C19.8114 9.33264 19.7408 8.71947 19.7406 8.0807C19.7406 5.85039 20.5298 3.94603 22.1084 2.36762C23.6869 0.789205 25.5914 0 27.8217 0C30.1567 0 32.1236 0.850251 33.7222 2.55075C35.5487 2.18896 37.259 1.53457 38.8529 0.587584C38.2388 2.52017 37.0555 4.01103 35.303 5.06016C36.9137 4.86876 38.4613 4.44554 39.9458 3.7905H39.9459Z" fill="white"/>
</g>
<defs>
<clipPath id="clip0">
<rect width="39.3936" height="32" fill="white" transform="translate(0.553223)"/>
</clipPath>
</defs>
</svg>
