<svg width="33" height="32" viewBox="0 0 33 32" fill="none" xmlns="http://www.w3.org/2000/svg">
<path d="M30.3625 9.25313C30.2031 8.65949 29.8906 8.11814 29.4563 7.68324C29.0219 7.24834 28.481 6.93514 27.8875 6.775C25.7031 6.1875 16.9469 6.1875 16.9469 6.1875C16.9469 6.1875 8.19065 6.1875 6.00627 6.77187C5.41259 6.9315 4.87135 7.24452 4.43692 7.6795C4.00248 8.11448 3.69015 8.65611 3.53127 9.25C2.9469 11.4375 2.9469 16 2.9469 16C2.9469 16 2.9469 20.5625 3.53127 22.7469C3.85315 23.9531 4.80315 24.9031 6.00627 25.225C8.19065 25.8125 16.9469 25.8125 16.9469 25.8125C16.9469 25.8125 25.7031 25.8125 27.8875 25.225C29.0938 24.9031 30.0406 23.9531 30.3625 22.7469C30.9469 20.5625 30.9469 16 30.9469 16C30.9469 16 30.9469 11.4375 30.3625 9.25313ZM14.1656 20.1875V11.8125L21.4156 15.9688L14.1656 20.1875Z" fill="white"/>
</svg>
