<svg width="33" height="32" viewBox="0 0 33 32" fill="none" xmlns="http://www.w3.org/2000/svg">
<path d="M7.81737 31.9991V10.4087H0.957811V31.9991H7.81737ZM4.38848 7.45912C6.78052 7.45912 8.26946 5.80123 8.26946 3.72942C8.22489 1.6109 6.78061 -0.000976562 4.43387 -0.000976562C2.08749 -0.000976562 0.553101 1.61093 0.553101 3.72942C0.553101 5.80133 2.04167 7.45912 4.34369 7.45912H4.38826H4.38848ZM11.6141 31.9991H18.4737V19.9419C18.4737 19.2967 18.5182 18.652 18.6994 18.1908C19.1953 16.9015 20.3239 15.5662 22.2188 15.5662C24.701 15.5662 25.694 17.5461 25.694 20.4485V31.9989H32.5532V19.6192C32.5532 12.9875 29.169 9.90181 24.6558 9.90181C20.9554 9.90181 19.3306 12.0657 18.428 13.5395H18.4738V10.4082H11.6143C11.7043 12.4342 11.6143 31.9986 11.6143 31.9986L11.6141 31.9991Z" fill="white"/>
</svg>
