<svg width="33" height="32" viewBox="0 0 33 32" fill="none" xmlns="http://www.w3.org/2000/svg">
<path d="M16.5532 9.5906C13.0064 9.5906 10.1439 12.4531 10.1439 16C10.1439 19.5469 13.0064 22.4094 16.5532 22.4094C20.1001 22.4094 22.9626 19.5469 22.9626 16C22.9626 12.4531 20.1001 9.5906 16.5532 9.5906ZM16.5532 20.1656C14.2595 20.1656 12.3876 18.2937 12.3876 16C12.3876 13.7062 14.2595 11.8344 16.5532 11.8344C18.847 11.8344 20.7189 13.7062 20.7189 16C20.7189 18.2937 18.847 20.1656 16.5532 20.1656ZM23.2251 7.83435C22.397 7.83435 21.7282 8.5031 21.7282 9.33123C21.7282 10.1594 22.397 10.8281 23.2251 10.8281C24.0532 10.8281 24.722 10.1625 24.722 9.33123C24.7222 9.13459 24.6837 8.93983 24.6086 8.75811C24.5334 8.57639 24.4232 8.41127 24.2841 8.27223C24.1451 8.13318 23.98 8.02293 23.7982 7.94779C23.6165 7.87265 23.4218 7.83411 23.2251 7.83435ZM29.047 16C29.047 14.275 29.0626 12.5656 28.9657 10.8437C28.8689 8.84373 28.4126 7.06873 26.9501 5.60623C25.4845 4.1406 23.7126 3.68748 21.7126 3.5906C19.9876 3.49373 18.2782 3.50935 16.5564 3.50935C14.8314 3.50935 13.122 3.49373 11.4001 3.5906C9.40012 3.68748 7.62512 4.14373 6.16262 5.60623C4.697 7.07185 4.24387 8.84373 4.147 10.8437C4.05012 12.5687 4.06575 14.2781 4.06575 16C4.06575 17.7219 4.05012 19.4344 4.147 21.1562C4.24387 23.1562 4.70012 24.9312 6.16262 26.3937C7.62825 27.8594 9.40012 28.3125 11.4001 28.4094C13.1251 28.5062 14.8345 28.4906 16.5564 28.4906C18.2814 28.4906 19.9907 28.5062 21.7126 28.4094C23.7126 28.3125 25.4876 27.8562 26.9501 26.3937C28.4158 24.9281 28.8689 23.1562 28.9657 21.1562C29.0658 19.4344 29.047 17.725 29.047 16ZM26.297 23.3687C26.0689 23.9375 25.7939 24.3625 25.3532 24.8C24.9126 25.2406 24.4907 25.5156 23.922 25.7437C22.2782 26.3969 18.3751 26.25 16.5532 26.25C14.7314 26.25 10.8251 26.3969 9.18137 25.7469C8.61262 25.5187 8.18762 25.2437 7.75012 24.8031C7.3095 24.3625 7.0345 23.9406 6.80637 23.3719C6.15637 21.725 6.30325 17.8219 6.30325 16C6.30325 14.1781 6.15637 10.2719 6.80637 8.6281C7.0345 8.05935 7.3095 7.63435 7.75012 7.19685C8.19075 6.75935 8.61262 6.48123 9.18137 6.2531C10.8251 5.6031 14.7314 5.74998 16.5532 5.74998C18.3751 5.74998 22.2814 5.6031 23.9251 6.2531C24.4939 6.48123 24.9189 6.75623 25.3564 7.19685C25.797 7.63748 26.072 8.05935 26.3001 8.6281C26.9501 10.2719 26.8032 14.1781 26.8032 16C26.8032 17.8219 26.9501 21.725 26.297 23.3687Z" fill="white"/>
</svg>
