<svg width="39" height="37" viewBox="0 0 39 37" fill="none" xmlns="http://www.w3.org/2000/svg">
<path fill-rule="evenodd" clip-rule="evenodd" d="M2.56934 6.48494C2.56934 5.59254 2.94577 4.73668 3.61582 4.10565C4.28587 3.47462 5.19466 3.12012 6.14226 3.12012H13.2881C14.2357 3.12012 15.1445 3.47462 15.8145 4.10565C16.4846 4.73668 16.861 5.59254 16.861 6.48494V13.2146C16.861 14.107 16.4846 14.9629 15.8145 15.5939C15.1445 16.2249 14.2357 16.5794 13.2881 16.5794H6.14226C5.19466 16.5794 4.28587 16.2249 3.61582 15.5939C2.94577 14.9629 2.56934 14.107 2.56934 13.2146V6.48494ZM6.14226 5.36333C5.82639 5.36333 5.52346 5.4815 5.30011 5.69185C5.07676 5.90219 4.95128 6.18747 4.95128 6.48494V13.2146C4.95128 13.5121 5.07676 13.7973 5.30011 14.0077C5.52346 14.218 5.82639 14.3362 6.14226 14.3362H13.2881C13.604 14.3362 13.9069 14.218 14.1302 14.0077C14.3536 13.7973 14.4791 13.5121 14.4791 13.2146V6.48494C14.4791 6.18747 14.3536 5.90219 14.1302 5.69185C13.9069 5.4815 13.604 5.36333 13.2881 5.36333H6.14226ZM21.6249 6.48494C21.6249 5.59254 22.0013 4.73668 22.6714 4.10565C23.3414 3.47462 24.2502 3.12012 25.1978 3.12012H32.3437C33.2913 3.12012 34.2001 3.47462 34.8701 4.10565C35.5402 4.73668 35.9166 5.59254 35.9166 6.48494V13.2146C35.9166 14.107 35.5402 14.9629 34.8701 15.5939C34.2001 16.2249 33.2913 16.5794 32.3437 16.5794H25.1978C24.2502 16.5794 23.3414 16.2249 22.6714 15.5939C22.0013 14.9629 21.6249 14.107 21.6249 13.2146V6.48494ZM25.1978 5.36333C24.882 5.36333 24.579 5.4815 24.3557 5.69185C24.1323 5.90219 24.0069 6.18747 24.0069 6.48494V13.2146C24.0069 13.5121 24.1323 13.7973 24.3557 14.0077C24.579 14.218 24.882 14.3362 25.1978 14.3362H32.3437C32.6595 14.3362 32.9625 14.218 33.1858 14.0077C33.4092 13.7973 33.5346 13.5121 33.5346 13.2146V6.48494C33.5346 6.18747 33.4092 5.90219 33.1858 5.69185C32.9625 5.4815 32.6595 5.36333 32.3437 5.36333H25.1978ZM2.56934 24.4307C2.56934 23.5383 2.94577 22.6824 3.61582 22.0514C4.28587 21.4204 5.19466 21.0659 6.14226 21.0659H13.2881C14.2357 21.0659 15.1445 21.4204 15.8145 22.0514C16.4846 22.6824 16.861 23.5383 16.861 24.4307V31.1603C16.861 32.0527 16.4846 32.9086 15.8145 33.5396C15.1445 34.1707 14.2357 34.5252 13.2881 34.5252H6.14226C5.19466 34.5252 4.28587 34.1707 3.61582 33.5396C2.94577 32.9086 2.56934 32.0527 2.56934 31.1603V24.4307ZM6.14226 23.3091C5.82639 23.3091 5.52346 23.4272 5.30011 23.6376C5.07676 23.8479 4.95128 24.1332 4.95128 24.4307V31.1603C4.95128 31.4578 5.07676 31.7431 5.30011 31.9534C5.52346 32.1638 5.82639 32.2819 6.14226 32.2819H13.2881C13.604 32.2819 13.9069 32.1638 14.1302 31.9534C14.3536 31.7431 14.4791 31.4578 14.4791 31.1603V24.4307C14.4791 24.1332 14.3536 23.8479 14.1302 23.6376C13.9069 23.4272 13.604 23.3091 13.2881 23.3091H6.14226ZM21.6249 24.4307C21.6249 23.5383 22.0013 22.6824 22.6714 22.0514C23.3414 21.4204 24.2502 21.0659 25.1978 21.0659H32.3437C33.2913 21.0659 34.2001 21.4204 34.8701 22.0514C35.5402 22.6824 35.9166 23.5383 35.9166 24.4307V31.1603C35.9166 32.0527 35.5402 32.9086 34.8701 33.5396C34.2001 34.1707 33.2913 34.5252 32.3437 34.5252H25.1978C24.2502 34.5252 23.3414 34.1707 22.6714 33.5396C22.0013 32.9086 21.6249 32.0527 21.6249 31.1603V24.4307ZM25.1978 23.3091C24.882 23.3091 24.579 23.4272 24.3557 23.6376C24.1323 23.8479 24.0069 24.1332 24.0069 24.4307V31.1603C24.0069 31.4578 24.1323 31.7431 24.3557 31.9534C24.579 32.1638 24.882 32.2819 25.1978 32.2819H32.3437C32.6595 32.2819 32.9625 32.1638 33.1858 31.9534C33.4092 31.7431 33.5346 31.4578 33.5346 31.1603V24.4307C33.5346 24.1332 33.4092 23.8479 33.1858 23.6376C32.9625 23.4272 32.6595 23.3091 32.3437 23.3091H25.1978Z" fill="black"/>
</svg>
