<svg width="39" height="37" viewBox="0 0 39 37" fill="none" xmlns="http://www.w3.org/2000/svg">
<path fill-rule="evenodd" clip-rule="evenodd" d="M12.4582 26.6739C12.4582 26.3764 12.5837 26.0911 12.8071 25.8808C13.0304 25.6705 13.3334 25.5523 13.6492 25.5523H35.0867C35.4026 25.5523 35.7055 25.6705 35.9289 25.8808C36.1522 26.0911 36.2777 26.3764 36.2777 26.6739C36.2777 26.9714 36.1522 27.2567 35.9289 27.467C35.7055 27.6773 35.4026 27.7955 35.0867 27.7955H13.6492C13.3334 27.7955 13.0304 27.6773 12.8071 27.467C12.5837 27.2567 12.4582 26.9714 12.4582 26.6739ZM12.4582 17.701C12.4582 17.4036 12.5837 17.1183 12.8071 16.9079C13.0304 16.6976 13.3334 16.5794 13.6492 16.5794H35.0867C35.4026 16.5794 35.7055 16.6976 35.9289 16.9079C36.1522 17.1183 36.2777 17.4036 36.2777 17.701C36.2777 17.9985 36.1522 18.2838 35.9289 18.4941C35.7055 18.7045 35.4026 18.8226 35.0867 18.8226H13.6492C13.3334 18.8226 13.0304 18.7045 12.8071 18.4941C12.5837 18.2838 12.4582 17.9985 12.4582 17.701ZM12.4582 8.72816C12.4582 8.43069 12.5837 8.1454 12.8071 7.93506C13.0304 7.72472 13.3334 7.60655 13.6492 7.60655H35.0867C35.4026 7.60655 35.7055 7.72472 35.9289 7.93506C36.1522 8.1454 36.2777 8.43069 36.2777 8.72816C36.2777 9.02563 36.1522 9.31091 35.9289 9.52126C35.7055 9.7316 35.4026 9.84977 35.0867 9.84977H13.6492C13.3334 9.84977 13.0304 9.7316 12.8071 9.52126C12.5837 9.31091 12.4582 9.02563 12.4582 8.72816ZM9.72854 5.69084C9.83945 5.79503 9.92744 5.9188 9.98748 6.05507C10.0475 6.19133 10.0784 6.33741 10.0784 6.48494C10.0784 6.63247 10.0475 6.77855 9.98748 6.91482C9.92744 7.05108 9.83945 7.17485 9.72854 7.27904L6.15562 10.6439C6.04498 10.7483 5.91356 10.8312 5.76887 10.8877C5.62418 10.9443 5.46906 10.9734 5.31241 10.9734C5.15575 10.9734 5.00064 10.9443 4.85595 10.8877C4.71125 10.8312 4.57983 10.7483 4.4692 10.6439L3.27822 9.52226C3.16749 9.41798 3.07965 9.29417 3.01973 9.15792C2.9598 9.02167 2.92896 8.87564 2.92896 8.72816C2.92896 8.58068 2.9598 8.43465 3.01973 8.2984C3.07965 8.16214 3.16749 8.03834 3.27822 7.93406C3.38896 7.82978 3.52041 7.74706 3.66509 7.69062C3.80977 7.63418 3.96483 7.60513 4.12143 7.60513C4.27803 7.60513 4.4331 7.63418 4.57777 7.69062C4.72245 7.74706 4.85391 7.82978 4.96464 7.93406L5.31241 8.26381L8.04212 5.69084C8.15275 5.58639 8.28417 5.50352 8.42886 5.44698C8.57356 5.39043 8.72867 5.36133 8.88533 5.36133C9.04198 5.36133 9.1971 5.39043 9.34179 5.44698C9.48648 5.50352 9.6179 5.58639 9.72854 5.69084ZM9.72854 14.6637C9.83945 14.7679 9.92744 14.8917 9.98748 15.0279C10.0475 15.1642 10.0784 15.3103 10.0784 15.4578C10.0784 15.6053 10.0475 15.7514 9.98748 15.8877C9.92744 16.024 9.83945 16.1477 9.72854 16.2519L6.15562 19.6167C6.04498 19.7212 5.91356 19.8041 5.76887 19.8606C5.62418 19.9171 5.46906 19.9462 5.31241 19.9462C5.15575 19.9462 5.00064 19.9171 4.85595 19.8606C4.71125 19.8041 4.57983 19.7212 4.4692 19.6167L3.27822 18.4951C3.05459 18.2845 2.92896 17.9989 2.92896 17.701C2.92896 17.4032 3.05459 17.1175 3.27822 16.9069C3.50186 16.6963 3.80517 16.578 4.12143 16.578C4.4377 16.578 4.74101 16.6963 4.96464 16.9069L5.31241 17.2367L8.04212 14.6637C8.15275 14.5593 8.28417 14.4764 8.42886 14.4198C8.57356 14.3633 8.72867 14.3342 8.88533 14.3342C9.04198 14.3342 9.1971 14.3633 9.34179 14.4198C9.48648 14.4764 9.6179 14.5593 9.72854 14.6637ZM9.72854 23.6366C9.83945 23.7408 9.92744 23.8645 9.98748 24.0008C10.0475 24.1371 10.0784 24.2831 10.0784 24.4307C10.0784 24.5782 10.0475 24.7243 9.98748 24.8606C9.92744 24.9968 9.83945 25.1206 9.72854 25.2248L6.15562 28.5896C6.04498 28.6941 5.91356 28.7769 5.76887 28.8335C5.62418 28.89 5.46906 28.9191 5.31241 28.9191C5.15575 28.9191 5.00064 28.89 4.85595 28.8335C4.71125 28.7769 4.57983 28.6941 4.4692 28.5896L3.27822 27.468C3.05459 27.2574 2.92896 26.9717 2.92896 26.6739C2.92896 26.3761 3.05459 26.0904 3.27822 25.8798C3.50186 25.6692 3.80517 25.5509 4.12143 25.5509C4.4377 25.5509 4.74101 25.6692 4.96464 25.8798L5.31241 26.2096L8.04212 23.6366C8.15275 23.5321 8.28417 23.4493 8.42886 23.3927C8.57356 23.3362 8.72867 23.3071 8.88533 23.3071C9.04198 23.3071 9.1971 23.3362 9.34179 23.3927C9.48648 23.4493 9.6179 23.5321 9.72854 23.6366Z" fill="black"/>
</svg>
