<svg xmlns="http://www.w3.org/2000/svg" xmlns:xlink="http://www.w3.org/1999/xlink" viewBox="0 0 319.02 319.02"><defs><style>.cls-1{fill:none;}.cls-2{fill:#231f20;}.cls-3{clip-path:url(#clip-path);}.cls-4{fill:url(#Degradado_sin_nombre_4);}</style><clipPath id="clip-path"><path class="cls-1" d="M41.14,126.1l2.93,11.15,10.18,2.91H63l3.57-3.56,3.7-7.34,4.7,6L83.74,140l5.73.19L95,138l4-4,2.67-4.2,7.09,6.8,7.62,3.7,6.12.2,5.73-3.63,4.52-6.09,3.5,0,.86,5.12,8.5,3.86,7.64.77,7.45-4.21,4-9.14L164,124.9s-20.38-16.79-21.46-16.76-82.5-1.42-82.5-1.42Z"/></clipPath><linearGradient id="Degradado_sin_nombre_4" x1="396.1" y1="597.48" x2="396.83" y2="597.48" gradientTransform="matrix(170.04, 0, 0, -170.04, -67310.23, 101716.26)" gradientUnits="userSpaceOnUse"><stop offset="0" stop-color="#ef413e"/><stop offset="0.01" stop-color="#ea4142"/><stop offset="0.12" stop-color="#c33e60"/><stop offset="0.23" stop-color="#a53c78"/><stop offset="0.33" stop-color="#8f3b88"/><stop offset="0.43" stop-color="#823a93"/><stop offset="0.53" stop-color="#7e3a96"/><stop offset="0.62" stop-color="#853893"/><stop offset="0.75" stop-color="#98318a"/><stop offset="0.9" stop-color="#b6257b"/><stop offset="1" stop-color="#cd1d70"/></linearGradient></defs><title>Logotype</title><g id="Layer_2" data-name="Layer 2"><g id="Capa_1" data-name="Capa 1"><rect class="cls-1" width="319.02" height="319.02"/><path d="M89.31,96.84h23c3.36,0,3.37-5.23,0-5.23h-23c-3.36,0-3.37,5.23,0,5.23"/><path class="cls-2" d="M146.56,210.18V205a2.48,2.48,0,1,0-5,0v3.11h0c0,.69,0,1.33,0,1.95H61V100.14c0-3.5-.37-7.22,0-10.7.61-5.7,8.8-4.09,12.9-4.09h56.43c4,0,10.7-1.29,11,4.4.62,12.19,0,24.58,0,36.78,0,8.25.1,21.86.1,21.86v4.36a2.53,2.53,0,1,0,5.06,0v-3.18h0c0-1.21.05-56.39.05-56.39,0-1.25.05-2.51,0-3.75a9.36,9.36,0,0,0-9.14-9.32c-5.4-.26-10.87,0-16.27,0-18.37,0-36.75-.22-55.11,0-6.5.07-10.26,4.38-10.26,10.7V211.47a2.94,2.94,0,0,0,0,2.36v8.24c0,3.89-.73,9.06,1.41,12.51,3.57,5.74,12,4.26,17.73,4.26h62.5a2.48,2.48,0,0,0,.63-.07,9.34,9.34,0,0,0,8.51-9.31c.05-1.31,0-2.64,0-4Zm-9.14,23.43H67.8c-2.51,0-5.6.39-6.61-2.72A11.33,11.33,0,0,1,61,227.6V215.26h80.53c0,4.13-.11,7.64-.21,13.05C141.29,230.88,140.69,233.37,137.42,233.61Z"/><path d="M102.62,231a6.28,6.28,0,1,1,6.28-6.28,6.28,6.28,0,0,1-6.28,6.28m0-10.46a4.19,4.19,0,1,0,4.19,4.18,4.19,4.19,0,0,0-4.19-4.18"/><path d="M116.23,161.61v35.84h-6.54v-22c0-.46,0-1,0-1.48s.07-1.07.13-1.61L99.61,191.79a2.74,2.74,0,0,1-2.59,1.6H96a2.73,2.73,0,0,1-2.59-1.6l-10.3-19.51c0,.57.09,1.13.12,1.66s.05,1,.05,1.5v22H76.72V161.61h5.63c.31,0,.59,0,.84,0a2.14,2.14,0,0,1,.65.14,1.56,1.56,0,0,1,.52.34,2.8,2.8,0,0,1,.46.66l10,19.11c.32.58.61,1.17.88,1.78s.53,1.24.78,1.88c.25-.66.51-1.3.78-1.93s.56-1.22.87-1.8l10-19a2.55,2.55,0,0,1,.47-.66,1.6,1.6,0,0,1,.53-.34,2.07,2.07,0,0,1,.64-.14c.24,0,.52,0,.85,0Z"/><path d="M129,164.74a3.79,3.79,0,0,1-.35,1.61,4.63,4.63,0,0,1-.92,1.31,4.33,4.33,0,0,1-1.36.89,4.43,4.43,0,0,1-1.67.32,4.07,4.07,0,0,1-1.59-.32,4.27,4.27,0,0,1-1.32-.89,4.37,4.37,0,0,1-.9-1.31,4,4,0,0,1,0-3.22,4.22,4.22,0,0,1,.9-1.33,4.27,4.27,0,0,1,1.32-.89,4.07,4.07,0,0,1,1.59-.32,4.43,4.43,0,0,1,1.67.32,4.33,4.33,0,0,1,1.36.89,4.45,4.45,0,0,1,.92,1.33,3.82,3.82,0,0,1,.35,1.61m-.82,32.71H121.4V172h6.81Z"/><polygon points="168.1 167.58 157.63 167.58 157.63 197.44 150.2 197.44 150.2 167.58 139.72 167.58 139.72 161.6 168.1 161.6 168.1 167.58"/><path d="M178,164.74a3.78,3.78,0,0,1-.34,1.61,4.47,4.47,0,0,1-.93,1.31,4.22,4.22,0,0,1-1.36.89,4.38,4.38,0,0,1-1.66.32,4.12,4.12,0,0,1-1.6-.32,4.27,4.27,0,0,1-1.32-.89,4.37,4.37,0,0,1-.9-1.31,4.09,4.09,0,0,1,0-3.22,4.22,4.22,0,0,1,.9-1.33,4.27,4.27,0,0,1,1.32-.89,4.12,4.12,0,0,1,1.6-.32,4.38,4.38,0,0,1,1.66.32,4.22,4.22,0,0,1,1.36.89,4.31,4.31,0,0,1,.93,1.33,3.81,3.81,0,0,1,.34,1.61m-.81,32.71h-6.82V172h6.82Z"/><path d="M187.2,185.76a8,8,0,0,0,2,5.24,6.18,6.18,0,0,0,4.48,1.65,7.93,7.93,0,0,0,2.43-.33,11.37,11.37,0,0,0,1.8-.74l1.41-.74a2.7,2.7,0,0,1,1.25-.34,1.43,1.43,0,0,1,1.23.6l2,2.47a10.44,10.44,0,0,1-2.4,2.08,12.29,12.29,0,0,1-2.71,1.31,14.45,14.45,0,0,1-2.84.67,22.37,22.37,0,0,1-2.77.19,14,14,0,0,1-5-.88,11.35,11.35,0,0,1-4-2.59,12.16,12.16,0,0,1-2.71-4.27,16.17,16.17,0,0,1-1-5.9,13.9,13.9,0,0,1,.86-4.89,11.6,11.6,0,0,1,2.45-4,11.86,11.86,0,0,1,3.91-2.71,13,13,0,0,1,5.18-1,12.64,12.64,0,0,1,4.51.78,10,10,0,0,1,3.56,2.26,10.2,10.2,0,0,1,2.32,3.65,13.72,13.72,0,0,1,.83,4.92,8.58,8.58,0,0,1-.08,1.26,2.31,2.31,0,0,1-.24.79.93.93,0,0,1-.47.41,2.37,2.37,0,0,1-.77.11Zm10.72-4a7,7,0,0,0-.29-2,4.75,4.75,0,0,0-.9-1.71,4.39,4.39,0,0,0-1.56-1.17,5.27,5.27,0,0,0-2.24-.43,5.18,5.18,0,0,0-3.83,1.38,7,7,0,0,0-1.8,4Z"/><path d="M213.33,174.94a16.71,16.71,0,0,1,1.59-1.35,10.21,10.21,0,0,1,1.76-1.07,10,10,0,0,1,2-.69,10.6,10.6,0,0,1,2.33-.25,8.92,8.92,0,0,1,3.68.72,7.62,7.62,0,0,1,2.7,2,8.54,8.54,0,0,1,1.66,3.06,13.1,13.1,0,0,1,.56,3.91v16.17h-6.8V181.27a5,5,0,0,0-1-3.3,3.58,3.58,0,0,0-2.91-1.17,6.06,6.06,0,0,0-2.69.61,9.57,9.57,0,0,0-2.4,1.73v18.3H207V172h4.19a1.65,1.65,0,0,1,1.71,1.19Z"/><path d="M256.33,160.62v36.83h-4.2a1.6,1.6,0,0,1-1.68-1.19l-.57-2.22a15.4,15.4,0,0,1-1.61,1.53,11.18,11.18,0,0,1-1.84,1.2,9.8,9.8,0,0,1-2.13.77,10.15,10.15,0,0,1-2.47.28,8.09,8.09,0,0,1-3.75-.87,8.34,8.34,0,0,1-3-2.53,12.23,12.23,0,0,1-1.94-4.09,19.82,19.82,0,0,1-.69-5.53,17.35,17.35,0,0,1,.77-5.29,12.93,12.93,0,0,1,2.21-4.22,10.26,10.26,0,0,1,3.46-2.79,9.85,9.85,0,0,1,4.5-1,8.8,8.8,0,0,1,3.49.61,9.32,9.32,0,0,1,2.58,1.68V160.62Zm-6.82,18a5.53,5.53,0,0,0-2.08-1.56,6.58,6.58,0,0,0-2.39-.44,5.36,5.36,0,0,0-2.25.47,4.49,4.49,0,0,0-1.74,1.47,7.42,7.42,0,0,0-1.12,2.55,15.43,15.43,0,0,0-.4,3.71,16.73,16.73,0,0,0,.33,3.6,7,7,0,0,0,.92,2.4,3.61,3.61,0,0,0,1.47,1.32,4.51,4.51,0,0,0,1.93.41,5.85,5.85,0,0,0,3-.72,8.61,8.61,0,0,0,2.31-2Z"/><path d="M260.18,175.51a15.16,15.16,0,0,1,5-3,16.81,16.81,0,0,1,5.88-1,10.42,10.42,0,0,1,4.06.74,8.66,8.66,0,0,1,3,2.06,9,9,0,0,1,1.91,3.15,11.46,11.46,0,0,1,.67,4v16H277.6a3,3,0,0,1-1.47-.28,2,2,0,0,1-.83-1.13l-.54-1.63c-.65.56-1.27,1.05-1.87,1.48A10.26,10.26,0,0,1,271,197a9.82,9.82,0,0,1-2.07.66,12.26,12.26,0,0,1-2.45.22,10.26,10.26,0,0,1-3.07-.44,6.67,6.67,0,0,1-2.38-1.33,5.72,5.72,0,0,1-1.54-2.18,7.68,7.68,0,0,1-.55-3,6.14,6.14,0,0,1,.72-2.81,7,7,0,0,1,2.46-2.56,15.6,15.6,0,0,1,4.64-1.9,32.82,32.82,0,0,1,7.27-.85v-1.31a5.12,5.12,0,0,0-1-3.52,3.71,3.71,0,0,0-2.91-1.12,7.19,7.19,0,0,0-2.35.33,10.58,10.58,0,0,0-1.64.72l-1.32.71a3,3,0,0,1-1.44.34,1.93,1.93,0,0,1-1.19-.36,3.43,3.43,0,0,1-.81-.85Zm13.88,11.29a32.69,32.69,0,0,0-4.15.43,10.58,10.58,0,0,0-2.63.8,3.44,3.44,0,0,0-1.38,1.13,2.82,2.82,0,0,0,.42,3.47,3.8,3.8,0,0,0,2.31.62,6.72,6.72,0,0,0,2.95-.61,8.75,8.75,0,0,0,2.48-1.89Z"/><path d="M226.31,213.89a12.3,12.3,0,0,1-.68,4.18,9.37,9.37,0,0,1-1.94,3.2,8.58,8.58,0,0,1-3,2,10.54,10.54,0,0,1-7.71,0,8.45,8.45,0,0,1-3-2,9.22,9.22,0,0,1-1.94-3.2,13,13,0,0,1,0-8.35,9.12,9.12,0,0,1,1.94-3.2,8.47,8.47,0,0,1,3-2.06,9.78,9.78,0,0,1,3.85-.73,10.05,10.05,0,0,1,3.86.72,8.6,8.6,0,0,1,3,2.06,9.41,9.41,0,0,1,1.94,3.21,12.24,12.24,0,0,1,.68,4.17m-1.48,0a11.43,11.43,0,0,0-.58-3.74,8.09,8.09,0,0,0-1.63-2.81,7.06,7.06,0,0,0-2.53-1.77,9,9,0,0,0-6.51,0,7.06,7.06,0,0,0-2.53,1.77,8,8,0,0,0-1.65,2.81,12.35,12.35,0,0,0,0,7.48,7.93,7.93,0,0,0,1.65,2.8,6.92,6.92,0,0,0,2.53,1.76,9.13,9.13,0,0,0,6.51,0,6.92,6.92,0,0,0,2.53-1.76,8,8,0,0,0,1.63-2.8,11.43,11.43,0,0,0,.58-3.74"/><path d="M230.52,212.3a7.79,7.79,0,0,1,2.24-1.94,5.53,5.53,0,0,1,2.83-.73,5.33,5.33,0,0,1,2,.36,3.79,3.79,0,0,1,1.45,1.06,4.46,4.46,0,0,1,.87,1.66,7.34,7.34,0,0,1,.3,2.19v8.93h-1.35V214.9a4.82,4.82,0,0,0-.9-3.09,3.31,3.31,0,0,0-2.74-1.11,5,5,0,0,0-2.55.69,7.24,7.24,0,0,0-2.11,1.93v10.51h-1.35v-14H230a.37.37,0,0,1,.41.35Z"/><rect x="244.12" y="203.39" width="1.35" height="20.45"/><path d="M251.56,205a1,1,0,0,1-.1.47,1.36,1.36,0,0,1-.27.39,1.56,1.56,0,0,1-.4.27,1.18,1.18,0,0,1-.95,0,1.56,1.56,0,0,1-.4-.27,1.16,1.16,0,0,1-.26-.39,1,1,0,0,1-.1-.47,1.31,1.31,0,0,1,.36-.88,1.34,1.34,0,0,1,.4-.27,1.18,1.18,0,0,1,.95,0,1.34,1.34,0,0,1,.4.27,1.28,1.28,0,0,1,.27.4,1.12,1.12,0,0,1,.1.48m-.57,18.8h-1.34v-14H251Z"/><path d="M256.33,212.3a7.92,7.92,0,0,1,2.24-1.94,5.55,5.55,0,0,1,2.83-.73,5.29,5.29,0,0,1,2,.36,3.83,3.83,0,0,1,1.46,1.06,4.77,4.77,0,0,1,.87,1.66,7.69,7.69,0,0,1,.29,2.19v8.93H264.7V214.9a4.82,4.82,0,0,0-.9-3.09,3.29,3.29,0,0,0-2.73-1.11,5,5,0,0,0-2.56.69,7.37,7.37,0,0,0-2.11,1.93v10.51h-1.35v-14h.75a.37.37,0,0,1,.4.35Z"/><path d="M270.28,216.29v.27a9.18,9.18,0,0,0,.37,2.76,5.63,5.63,0,0,0,1,2,4.22,4.22,0,0,0,1.63,1.21,5.39,5.39,0,0,0,2.13.41,6.57,6.57,0,0,0,1.83-.23,7.15,7.15,0,0,0,1.3-.52,8.11,8.11,0,0,0,.84-.52.85.85,0,0,1,.45-.23.31.31,0,0,1,.28.14l.36.45a3.63,3.63,0,0,1-.89.78,5.77,5.77,0,0,1-1.24.63,8.89,8.89,0,0,1-1.46.41,7.51,7.51,0,0,1-1.56.16,6.72,6.72,0,0,1-2.62-.5,5.44,5.44,0,0,1-2-1.46,6.46,6.46,0,0,1-1.3-2.34,9.87,9.87,0,0,1-.46-3.16,8.53,8.53,0,0,1,.43-2.78,6.35,6.35,0,0,1,1.24-2.19,5.5,5.5,0,0,1,2-1.44,6.44,6.44,0,0,1,2.66-.52,5.62,5.62,0,0,1,2.19.41,4.92,4.92,0,0,1,1.76,1.18,5.44,5.44,0,0,1,1.17,1.92,7.29,7.29,0,0,1,.43,2.61.85.85,0,0,1-.08.43.35.35,0,0,1-.28.11Zm9.33-.86a6,6,0,0,0-.31-2,4.26,4.26,0,0,0-.9-1.52A3.85,3.85,0,0,0,277,211a4.46,4.46,0,0,0-1.74-.33,5.33,5.33,0,0,0-1.94.33,4.32,4.32,0,0,0-1.49,1,4.9,4.9,0,0,0-1,1.52,7.37,7.37,0,0,0-.51,2Z"/><g class="cls-3"><rect class="cls-4" x="41.14" y="106.72" width="123.62" height="33.71"/></g><path d="M166.87,123.79,143,103.92H56.79L38.31,123.83h0c-.06.43-1.08,8.69,4.18,14.41,3,3.23,7.21,4.86,12.63,4.86s9.66-1.63,12.62-4.86A15.26,15.26,0,0,0,70.85,133,15.13,15.13,0,0,0,74,138.25c3,3.23,7.21,4.86,12.62,4.86s9.66-1.63,12.62-4.86a15.26,15.26,0,0,0,3.11-5.25,15.44,15.44,0,0,0,3.13,5.25c3,3.23,7.21,4.86,12.62,4.86s9.67-1.63,12.63-4.86a15.49,15.49,0,0,0,3.34-6,15.52,15.52,0,0,0,3.36,6c3,3.23,7.21,4.86,12.63,4.86s9.66-1.63,12.62-4.86c4.82-5.23,4.37-12.86,4.21-14.46m-103.22,11c-1.88,2-4.76,3.08-8.53,3.08s-6.65-1-8.54-3.08c-3.67-4-2.89-10.92-2.88-11l22.86,0c.1,1.39.35,7.52-2.91,11m31.49,0c-1.89,2-4.76,3.08-8.54,3.08s-6.65-1-8.54-3.08c-3.66-4-2.89-10.93-2.88-11H72v0H98.05c.1,1.39.34,7.52-2.91,11m31.48,0c-1.89,2-4.76,3.08-8.54,3.08s-6.65-1-8.53-3.08c-3.67-4-2.89-10.93-2.88-11h-3.23v0h26.09c.1,1.39.34,7.52-2.91,11m-73.84-17.3,6.76-7.33h81.2l9,7.33Zm105.79,17.3c-1.88,2-4.76,3.08-8.53,3.08s-6.65-1-8.54-3.08c-3.67-4-2.89-10.93-2.88-11h-3.69v0h26.56c.1,1.39.35,7.52-2.91,11"/></g></g></svg>