<svg width="32" height="32" viewBox="0 0 32 32" fill="none" xmlns="http://www.w3.org/2000/svg">
<g opacity="0.8">
<path d="M28.0721 24.7474L22.0257 18.701C22.9683 17.1539 23.4655 15.3766 23.4625 13.565C23.4625 8.09782 18.7249 3.36182 13.2577 3.36182C11.9579 3.36161 10.6707 3.61747 9.46981 4.1148C8.26888 4.61212 7.1777 5.34117 6.25858 6.26029C5.33946 7.17941 4.61042 8.27059 4.11309 9.47152C3.61576 10.6724 3.3599 11.9596 3.36011 13.2594C3.36011 18.725 8.09771 23.4626 13.5633 23.4626C15.3152 23.4642 17.0358 22.998 18.5473 22.1122L24.6257 28.1938C24.9115 28.4789 25.2988 28.639 25.7025 28.639C26.1062 28.639 26.4935 28.4789 26.7793 28.1938L28.2881 26.685C28.8817 26.0914 28.6657 25.341 28.0721 24.7474ZM6.40651 13.2594C6.4063 12.3596 6.58335 11.4685 6.92757 10.6371C7.27178 9.80567 7.7764 9.05021 8.41261 8.41385C9.04883 7.77749 9.80417 7.27269 10.6355 6.92829C11.4668 6.58388 12.3579 6.40662 13.2577 6.40662C17.0433 6.40662 20.4161 9.77782 20.4161 13.565C20.4157 15.3824 19.6936 17.1252 18.4085 18.4102C17.1234 19.6953 15.3807 20.4174 13.5633 20.4178C9.77771 20.4162 6.40651 17.0434 6.40651 13.2594Z" fill="black"/>
</g>
</svg>
