<svg width="48" height="56" viewBox="0 0 48 56" fill="none" xmlns="http://www.w3.org/2000/svg">
<path d="M38.2881 26.3186L38.2884 26.3192C39.0276 27.9676 39.432 29.7091 39.4948 31.5H37.2597C37.1274 28.3245 35.7552 25.3603 33.3731 23.1099C30.8647 20.7402 27.5365 19.4397 24 19.4397C20.4635 19.4397 17.1353 20.7402 14.6269 23.1099C12.2448 25.3603 10.8726 28.3245 10.7403 31.5H8.5049C8.56494 29.7203 8.9736 27.9652 9.71147 26.3236L9.71173 26.323C10.4885 24.5888 11.6143 23.0113 13.0282 21.6784L13.0291 21.6775C14.4504 20.3309 16.1069 19.2756 17.9554 18.5388L17.9693 18.5333C17.9741 18.5316 17.9807 18.5292 17.9877 18.5265C17.9998 18.5218 18.0162 18.5152 18.0349 18.5064L18.8234 18.1338L18.1036 17.6416C15.5764 15.9132 13.9469 13.115 13.9469 9.96985C13.9469 4.76486 18.4192 0.5 24 0.5C29.5808 0.5 34.0531 4.76486 34.0531 9.96985C34.0531 13.115 32.4235 15.9131 29.8969 17.6372L29.1756 18.1294L29.9651 18.5024C29.9838 18.5112 30.0002 18.5178 30.0123 18.5225C30.0195 18.5252 30.0263 18.5277 30.0312 18.5294L30.0441 18.5346C31.8872 19.2715 33.5601 20.3379 34.9711 21.6736L34.9721 21.6747C36.3872 23.0064 37.5129 24.5839 38.2881 26.3186ZM18.4822 15.2217C19.9607 16.6186 21.923 17.3844 24 17.3844C26.077 17.3844 28.0393 16.6186 29.5178 15.2217C30.9973 13.824 31.8191 11.9573 31.8191 9.96985C31.8191 7.9824 30.9973 6.11567 29.5178 4.71795C28.0393 3.32113 26.077 2.55528 24 2.55528C21.923 2.55528 19.9607 3.32113 18.4822 4.71795C17.0027 6.11567 16.1809 7.9824 16.1809 9.96985C16.1809 11.9573 17.0027 13.824 18.4822 15.2217Z" fill="white" stroke="white"/>
<path d="M1.92 51H3.9V45.78H7.08C9.66 45.78 11.52 43.98 11.52 41.3C11.52 38.62 9.66 36.88 7.08 36.88H1.92V51ZM3.9 44.06V38.6H6.78C8.46 38.6 9.5 39.6 9.5 41.3C9.5 43 8.46 44.06 6.76 44.06H3.9ZM12.9684 45.94C12.9684 48.94 15.1484 51.24 18.3284 51.24C20.7484 51.24 22.2484 49.8 22.2484 49.8L21.4484 48.38C21.4484 48.38 20.1884 49.56 18.4484 49.56C16.6484 49.56 15.0684 48.44 14.9684 46.22H22.3484C22.3484 46.22 22.4084 45.64 22.4084 45.38C22.4084 42.76 20.8884 40.64 18.0284 40.64C15.1484 40.64 12.9684 42.72 12.9684 45.94ZM15.0284 44.76C15.3084 43.1 16.5084 42.18 17.9884 42.18C19.2884 42.18 20.3684 43.02 20.4284 44.76H15.0284ZM24.7622 51H26.7022V46.86C26.7022 46.24 26.7622 45.62 26.9422 45.04C27.4022 43.54 28.5422 42.66 29.7822 42.66C30.0822 42.66 30.3422 42.72 30.3422 42.72V40.8C30.3422 40.8 30.1022 40.76 29.8422 40.76C28.2822 40.76 27.1022 41.92 26.6422 43.4H26.6022C26.6022 43.4 26.6422 43.06 26.6422 42.64V40.88H24.7622V51ZM38.9822 51H40.9222V40.88H34.7222V40.58C34.7222 38.7 36.1022 38.46 36.8422 38.46C37.1422 38.46 37.3422 38.5 37.3422 38.5V36.84C37.3422 36.84 37.0422 36.78 36.6022 36.78C35.3222 36.78 32.8022 37.2 32.8022 40.54V40.88H31.5422V42.44H32.8022V51H34.7222V42.44H38.9822V51ZM38.9622 38.86H40.9222V36.88H38.9622V38.86ZM43.8414 48.24C43.8414 50.78 45.4614 51.08 46.5614 51.08C46.9014 51.08 47.2014 51.04 47.2014 51.04V49.32C47.2014 49.32 47.0414 49.34 46.8614 49.34C46.2614 49.34 45.7814 49.12 45.7814 47.9V36.88H43.8414V48.24Z" fill="white"/>
</svg>
