<svg width="93" height="56" viewBox="0 0 93 56" fill="none" xmlns="http://www.w3.org/2000/svg">
<path d="M45.5661 3.9043L45.3334 3.7819L45.1007 3.9043L38.154 7.55763L38.3867 8.50016H52.2801L52.5128 7.55763L45.5661 3.9043ZM36.5001 22.1668V13.8335H38.1667V22.1668H36.5001ZM44.5001 22.1668V13.8335H46.1667V22.1668H44.5001ZM33.1667 27.5002V25.8335H57.5001V27.5002H33.1667ZM52.5001 22.1668V13.8335H54.1667V22.1668H52.5001ZM33.1667 8.30203L45.3334 1.89852L57.5001 8.30203V10.1668H33.1667V8.30203Z" fill="white" stroke="white"/>
<path d="M1.92 51H3.9V45.78H7.08C9.66 45.78 11.52 43.98 11.52 41.3C11.52 38.62 9.66 36.88 7.08 36.88H1.92V51ZM3.9 44.06V38.6H6.78C8.46 38.6 9.5 39.6 9.5 41.3C9.5 43 8.46 44.06 6.76 44.06H3.9ZM13.6684 51H15.6084V46.86C15.6084 46.24 15.6684 45.62 15.8484 45.04C16.3084 43.54 17.4484 42.66 18.6884 42.66C18.9884 42.66 19.2484 42.72 19.2484 42.72V40.8C19.2484 40.8 19.0084 40.76 18.7484 40.76C17.1884 40.76 16.0084 41.92 15.5484 43.4H15.5084C15.5084 43.4 15.5484 43.06 15.5484 42.64V40.88H13.6684V51ZM20.3698 45.92C20.3698 49 22.8098 51.24 25.8298 51.24C28.8498 51.24 31.2898 49 31.2898 45.92C31.2898 42.86 28.8498 40.64 25.8298 40.64C22.8098 40.64 20.3698 42.86 20.3698 45.92ZM22.3498 45.92C22.3498 43.82 23.9298 42.32 25.8298 42.32C27.7498 42.32 29.3098 43.82 29.3098 45.92C29.3098 48.04 27.7498 49.56 25.8298 49.56C23.9298 49.56 22.3498 48.04 22.3498 45.92ZM32.1703 54.58C32.1703 54.58 32.9903 55.2 34.1303 55.2C35.5503 55.2 36.7903 54.38 37.4103 52.82L42.1503 40.88H40.0503L37.5903 47.52C37.4103 48.04 37.2503 48.72 37.2503 48.72H37.2103C37.2103 48.72 37.0303 48.02 36.8303 47.5L34.2903 40.88H32.1103L36.3503 50.88L35.8503 52.04C35.4703 52.96 34.8103 53.52 34.0303 53.52C33.4103 53.52 32.8503 53.1 32.8503 53.1L32.1703 54.58ZM43.0856 45.94C43.0856 48.94 45.2656 51.24 48.4456 51.24C50.8656 51.24 52.3656 49.8 52.3656 49.8L51.5656 48.38C51.5656 48.38 50.3056 49.56 48.5656 49.56C46.7656 49.56 45.1856 48.44 45.0856 46.22H52.4656C52.4656 46.22 52.5256 45.64 52.5256 45.38C52.5256 42.76 51.0056 40.64 48.1456 40.64C45.2656 40.64 43.0856 42.72 43.0856 45.94ZM45.1456 44.76C45.4256 43.1 46.6256 42.18 48.1056 42.18C49.4056 42.18 50.4856 43.02 50.5456 44.76H45.1456ZM54.1594 45.94C54.1594 48.98 56.3994 51.24 59.5794 51.24C62.2194 51.24 63.6194 49.62 63.6194 49.62L62.8394 48.2C62.8394 48.2 61.5994 49.56 59.7194 49.56C57.6194 49.56 56.1394 47.98 56.1394 45.92C56.1394 43.84 57.6194 42.32 59.6594 42.32C61.3794 42.32 62.4594 43.48 62.4594 43.48L63.3794 42.12C63.3794 42.12 62.1194 40.64 59.5794 40.64C56.3994 40.64 54.1594 42.94 54.1594 45.94ZM66.2369 47.3C66.2369 50.68 68.8169 51.08 70.1169 51.08C70.5169 51.08 70.7969 51.04 70.7969 51.04V49.32C70.7969 49.32 70.6169 49.36 70.3369 49.36C69.5969 49.36 68.1769 49.1 68.1769 47.08V42.58H70.6169V41.02H68.1769V38.1H66.2969V41.02H64.9169V42.58H66.2369V47.3ZM72.2448 45.92C72.2448 49 74.6848 51.24 77.7048 51.24C80.7248 51.24 83.1648 49 83.1648 45.92C83.1648 42.86 80.7248 40.64 77.7048 40.64C74.6848 40.64 72.2448 42.86 72.2448 45.92ZM74.2248 45.92C74.2248 43.82 75.8048 42.32 77.7048 42.32C79.6248 42.32 81.1848 43.82 81.1848 45.92C81.1848 48.04 79.6248 49.56 77.7048 49.56C75.8048 49.56 74.2248 48.04 74.2248 45.92ZM84.6453 49.76C84.6453 49.76 86.0053 51.24 88.4853 51.24C90.7053 51.24 92.1453 49.98 92.1453 48.3C92.1453 44.98 86.9453 45.38 86.9453 43.56C86.9453 42.68 87.7653 42.32 88.6053 42.32C90.2053 42.32 91.1053 43.22 91.1053 43.22L91.8853 41.76C91.8853 41.76 90.8453 40.64 88.6253 40.64C86.6053 40.64 84.9653 41.68 84.9653 43.52C84.9653 46.82 90.1653 46.44 90.1653 48.3C90.1653 49.12 89.3253 49.56 88.4853 49.56C86.7253 49.56 85.5853 48.38 85.5853 48.38L84.6453 49.76Z" fill="white"/>
</svg>
