<svg width="40" height="56" viewBox="0 0 40 56" fill="none" xmlns="http://www.w3.org/2000/svg">
<path d="M23.1667 25.3333V23.1667H24.8333V25.3333C24.8333 25.908 24.6051 26.4591 24.1987 26.8654C23.7924 27.2717 23.2413 27.5 22.6667 27.5H10.6667C10.092 27.5 9.54093 27.2717 9.1346 26.8654C8.72827 26.4591 8.5 25.908 8.5 25.3333V6.66667C8.5 6.09203 8.72827 5.54093 9.1346 5.1346C9.54093 4.72827 10.092 4.5 10.6667 4.5H22.6667C23.2413 4.5 23.7924 4.72827 24.1987 5.1346C24.6051 5.54093 24.8333 6.09203 24.8333 6.66667V8.83333H23.1667V6.66667V6.16667H22.6667H10.6667H10.1667V6.66667V25.3333V25.8333H10.6667H22.6667H23.1667V25.3333ZM30.896 16.8333H17.8333V15.1667H30.896H32.1031L31.2496 14.3131L27.4884 10.552L28.6667 9.37377L35.2929 16L28.6667 22.6262L27.4884 21.448L31.2496 17.6869L32.1031 16.8333H30.896Z" fill="white" stroke="white"/>
<path d="M0.84 49.38C0.84 49.38 2.52 51.24 5.52 51.24C8.32 51.24 10 49.44 10 47.26C10 42.68 3.16 43.46 3.16 40.54C3.16 39.42 4.22 38.48 5.72 38.48C7.52 38.48 8.82 39.7 8.82 39.7L9.72 38.06C9.72 38.06 8.34 36.64 5.72 36.64C3.06 36.64 1.16 38.38 1.16 40.58C1.16 44.92 8 44.26 8 47.32C8 48.66 6.88 49.4 5.56 49.4C3.46 49.4 1.96 47.88 1.96 47.88L0.84 49.38ZM11.618 48.16C11.618 50.18 13.318 51.24 15.058 51.24C17.478 51.24 18.298 49.24 18.298 49.24H18.338C18.338 49.24 18.298 49.58 18.298 50.04V51H20.098V44.6C20.098 42.04 18.658 40.64 16.098 40.64C13.778 40.64 12.318 41.84 12.318 41.84L13.118 43.26C13.118 43.26 14.378 42.28 15.938 42.28C17.218 42.28 18.158 42.84 18.158 44.5V44.68H17.718C16.018 44.68 11.618 44.82 11.618 48.16ZM13.578 48.06C13.578 46.24 16.218 46.14 17.678 46.14H18.178V46.46C18.178 47.96 17.118 49.68 15.478 49.68C14.218 49.68 13.578 48.88 13.578 48.06ZM22.8844 48.24C22.8844 50.78 24.5044 51.08 25.6044 51.08C25.9444 51.08 26.2444 51.04 26.2444 51.04V49.32C26.2444 49.32 26.0844 49.34 25.9044 49.34C25.3044 49.34 24.8244 49.12 24.8244 47.9V36.88H22.8844V48.24ZM28.2773 38.86H30.2373V36.88H28.2773V38.86ZM28.2973 51H30.2373V40.88H28.2973V51ZM33.2778 51H35.2178V46.86C35.2178 46.24 35.2778 45.62 35.4578 45.04C35.9178 43.54 37.0578 42.66 38.2978 42.66C38.5978 42.66 38.8578 42.72 38.8578 42.72V40.8C38.8578 40.8 38.6178 40.76 38.3578 40.76C36.7978 40.76 35.6178 41.92 35.1578 43.4H35.1178C35.1178 43.4 35.1578 43.06 35.1578 42.64V40.88H33.2778V51Z" fill="white"/>
</svg>
