<svg width="48" height="46" viewBox="0 0 48 46" fill="none" xmlns="http://www.w3.org/2000/svg">
<path d="M38.2961 5.94194C37.9397 5.35099 37.437 4.86184 36.8366 4.52168C36.2361 4.18152 35.5582 4.00183 34.8681 3.99994H13.1321C11.7361 3.99994 10.4221 4.74394 9.70406 5.94194L4.28606 14.9699C4.09857 15.2808 3.99967 15.6369 4.00006 15.9999C4.00805 17.9304 4.71905 19.7918 6.00006 21.2359V37.9999C6.00006 40.2059 7.79406 41.9999 10.0001 41.9999H38.0001C40.2061 41.9999 42.0001 40.2059 42.0001 37.9999V21.2359C43.2811 19.7918 43.9921 17.9304 44.0001 15.9999C44.0005 15.6369 43.9016 15.2808 43.7141 14.9699L38.2961 5.94194ZM39.9681 16.5019C39.8446 17.4676 39.3738 18.3552 38.6435 18.999C37.9133 19.6427 36.9736 19.9986 36.0001 19.9999C33.7941 19.9999 32.0001 18.2059 32.0001 15.9999C32.0001 15.8639 31.9501 15.7439 31.9221 15.6159L31.9621 15.6079L30.4401 7.99994H34.8681L39.9681 16.5019ZM21.6381 7.99994H26.3601L27.9861 16.1299C27.9161 18.2739 26.1601 19.9999 24.0001 19.9999C21.8401 19.9999 20.0841 18.2739 20.0141 16.1299L21.6381 7.99994ZM13.1321 7.99994H17.5601L16.0401 15.6079L16.0801 15.6159C16.0501 15.7439 16.0001 15.8639 16.0001 15.9999C16.0001 18.2059 14.2061 19.9999 12.0001 19.9999C11.0266 19.9986 10.0869 19.6427 9.35662 18.999C8.62636 18.3552 8.15551 17.4676 8.03206 16.5019L13.1321 7.99994ZM20.0001 37.9999V31.9999H28.0001V37.9999H20.0001ZM32.0001 37.9999V31.9999C32.0001 29.7939 30.2061 27.9999 28.0001 27.9999H20.0001C17.7941 27.9999 16.0001 29.7939 16.0001 31.9999V37.9999H10.0001V23.7159C10.6421 23.8819 11.3041 23.9999 12.0001 23.9999C13.1357 24.0005 14.2584 23.7587 15.2931 23.2907C16.3278 22.8227 17.2507 22.1392 18.0001 21.2859C19.4661 22.9499 21.6141 23.9999 24.0001 23.9999C26.3861 23.9999 28.5341 22.9499 30.0001 21.2859C30.7495 22.1392 31.6724 22.8227 32.7071 23.2907C33.7418 23.7587 34.8644 24.0005 36.0001 23.9999C36.6961 23.9999 37.3581 23.8819 38.0001 23.7159V37.9999H32.0001Z" fill="black"/>
</svg>
