<svg width="40" height="41" viewBox="0 0 40 41" fill="none" xmlns="http://www.w3.org/2000/svg">
<path d="M13.0029 20C13.0029 21.103 13.8999 22 15.0029 22H25.0029C26.1059 22 27.0029 21.103 27.0029 20V8H29.0029V6H25.0029V4C25.0029 2.897 24.1059 2 23.0029 2H17.0029C15.8999 2 15.0029 2.897 15.0029 4V6H11.0029V8H13.0029V20ZM17.0029 4H23.0029V6H17.0029V4ZM16.0029 8H25.0029L25.0039 20H15.0029V8H16.0029Z" fill="black"/>
<path d="M17.0029 10H19.0029V18H17.0029V10ZM21.0029 10H23.0029V18H21.0029V10Z" fill="black"/>
<path d="M1.148 37H2.072V36.37C2.072 36.034 2.044 35.796 2.044 35.796H2.072C2.072 35.796 2.702 37.168 4.382 37.168C6.23 37.168 7.56 35.712 7.56 33.486C7.56 31.302 6.384 29.79 4.494 29.79C2.688 29.79 2.1 31.148 2.1 31.148H2.072C2.072 31.148 2.1 30.896 2.1 30.574V27.158H1.148V37ZM2.072 33.5C2.072 31.498 3.178 30.658 4.354 30.658C5.67 30.658 6.58 31.764 6.58 33.486C6.58 35.278 5.558 36.328 4.312 36.328C2.8 36.328 2.072 34.914 2.072 33.5ZM8.87414 33.444C8.87414 35.572 10.5401 37.168 12.5981 37.168C14.6561 37.168 16.3221 35.572 16.3221 33.444C16.3221 31.358 14.6561 29.79 12.5981 29.79C10.5401 29.79 8.87414 31.358 8.87414 33.444ZM9.85414 33.444C9.85414 31.848 11.0861 30.658 12.5981 30.658C14.1101 30.658 15.3421 31.848 15.3421 33.444C15.3421 35.082 14.1101 36.314 12.5981 36.314C11.0861 36.314 9.85414 35.082 9.85414 33.444ZM18.1011 37H19.0531V34.032C19.0531 33.584 19.1091 33.108 19.2491 32.66C19.5571 31.624 20.2991 30.84 21.2931 30.84C21.4751 30.84 21.6431 30.868 21.6431 30.868V29.93C21.6431 29.93 21.4611 29.888 21.2651 29.888C20.1591 29.888 19.3751 30.7 19.0391 31.764H19.0111C19.0111 31.764 19.0391 31.512 19.0391 31.204V29.958H18.1011V37ZM23.0914 37H24.0434V34.032C24.0434 33.584 24.0994 33.108 24.2394 32.66C24.5474 31.624 25.2894 30.84 26.2834 30.84C26.4654 30.84 26.6334 30.868 26.6334 30.868V29.93C26.6334 29.93 26.4514 29.888 26.2554 29.888C25.1494 29.888 24.3654 30.7 24.0294 31.764H24.0014C24.0014 31.764 24.0294 31.512 24.0294 31.204V29.958H23.0914V37ZM27.5076 35.082C27.5076 36.482 28.7256 37.168 29.9016 37.168C31.6656 37.168 32.2536 35.642 32.2536 35.642H32.2816C32.2816 35.642 32.2536 35.88 32.2536 36.23V37H33.1636V32.492C33.1636 30.728 32.2256 29.79 30.5316 29.79C28.9496 29.79 28.0256 30.588 28.0256 30.588L28.4736 31.316C28.4736 31.316 29.2996 30.644 30.4616 30.644C31.4696 30.644 32.2116 31.106 32.2116 32.464V32.646H31.8196C30.6016 32.646 27.5076 32.702 27.5076 35.082ZM28.4876 35.026C28.4876 33.472 30.6996 33.43 31.8056 33.43H32.2116V33.738C32.2116 34.956 31.3996 36.356 30.0556 36.356C29.0056 36.356 28.4876 35.684 28.4876 35.026ZM35.355 37H36.307V34.032C36.307 33.584 36.363 33.108 36.503 32.66C36.811 31.624 37.553 30.84 38.547 30.84C38.729 30.84 38.897 30.868 38.897 30.868V29.93C38.897 29.93 38.715 29.888 38.519 29.888C37.413 29.888 36.629 30.7 36.293 31.764H36.265C36.265 31.764 36.293 31.512 36.293 31.204V29.958H35.355V37Z" fill="black"/>
</svg>
