<svg width="32" height="32" viewBox="0 0 32 32" fill="none" xmlns="http://www.w3.org/2000/svg">
<path d="M25.3333 18.115V13.3337C25.3333 9.04433 22.42 5.43099 18.4733 4.34433C18.0827 3.36033 17.128 2.66699 16 2.66699C14.872 2.66699 13.9173 3.36033 13.5267 4.34433C9.58 5.43233 6.66667 9.04433 6.66667 13.3337V18.115L4.39067 20.391C4.26661 20.5146 4.16823 20.6615 4.10118 20.8233C4.03413 20.9851 3.99975 21.1585 4 21.3337V24.0003C4 24.3539 4.14048 24.6931 4.39053 24.9431C4.64057 25.1932 4.97971 25.3337 5.33333 25.3337H26.6667C27.0203 25.3337 27.3594 25.1932 27.6095 24.9431C27.8595 24.6931 28 24.3539 28 24.0003V21.3337C28.0003 21.1585 27.9659 20.9851 27.8988 20.8233C27.8318 20.6615 27.7334 20.5146 27.6093 20.391L25.3333 18.115ZM25.3333 22.667H6.66667V21.8857L8.94267 19.6097C9.06672 19.4861 9.16511 19.3391 9.23215 19.1773C9.2992 19.0156 9.33359 18.8421 9.33333 18.667V13.3337C9.33333 9.65766 12.324 6.66699 16 6.66699C19.676 6.66699 22.6667 9.65766 22.6667 13.3337V18.667C22.6667 19.0217 22.8067 19.3603 23.0573 19.6097L25.3333 21.8857V22.667ZM16 29.3337C16.8257 29.3347 17.6313 29.0785 18.3047 28.6005C18.978 28.1226 19.4858 27.4468 19.7573 26.667H12.2427C12.5142 27.4468 13.022 28.1226 13.6953 28.6005C14.3687 29.0785 15.1743 29.3347 16 29.3337Z" fill="black"/>
</svg>
