<svg width="60" height="49" viewBox="0 0 60 49" fill="none" xmlns="http://www.w3.org/2000/svg">
<path d="M14 12.5H46V21H14V12.5Z" fill="#2B3990"/>
<path d="M41 5H19C15.6865 5 14 7.4625 14 10.5V16H46V10.5C46 7.4625 44.3135 5 41 5Z" fill="#F9CB38"/>
<path d="M14 21.5C14 24.5375 15.6865 27 19 27H41C44.3135 27 46 24.5375 46 21.5V21H14V21.5Z" fill="#EC1C24"/>
<path d="M0.976 39.32C0.976 42.568 3.328 45.192 6.592 45.192C9.312 45.192 10.816 43.496 10.816 43.496L10.384 43.016C10.384 43.016 8.992 44.536 6.592 44.536C3.776 44.536 1.696 42.232 1.696 39.32C1.696 36.424 3.792 34.264 6.544 34.264C8.784 34.264 10.112 35.528 10.112 35.528L10.528 35.016C10.528 35.016 9.184 33.608 6.528 33.608C3.376 33.608 0.976 36.072 0.976 39.32ZM10.966 40.952C10.966 43.336 12.822 45.192 15.11 45.192C17.398 45.192 19.254 43.336 19.254 40.952C19.254 38.616 17.398 36.808 15.11 36.808C12.822 36.808 10.966 38.616 10.966 40.952ZM11.67 40.952C11.67 38.968 13.206 37.464 15.11 37.464C17.014 37.464 18.55 38.968 18.55 40.952C18.55 42.984 17.014 44.536 15.11 44.536C13.206 44.536 11.67 42.984 11.67 40.952ZM19.7999 43.384C19.7999 44.888 20.9039 45.064 21.3679 45.064C21.5119 45.064 21.6559 45.032 21.6559 45.032V44.408C21.6559 44.408 21.5439 44.424 21.4159 44.424C21.0479 44.424 20.4719 44.296 20.4719 43.176V33.8H19.7999V43.384ZM21.3754 40.952C21.3754 43.336 23.2314 45.192 25.5194 45.192C27.8074 45.192 29.6634 43.336 29.6634 40.952C29.6634 38.616 27.8074 36.808 25.5194 36.808C23.2314 36.808 21.3754 38.616 21.3754 40.952ZM22.0794 40.952C22.0794 38.968 23.6154 37.464 25.5194 37.464C27.4234 37.464 28.9594 38.968 28.9594 40.952C28.9594 42.984 27.4234 44.536 25.5194 44.536C23.6154 44.536 22.0794 42.984 22.0794 40.952ZM30.2893 45H30.9613V41.096C30.9613 40.712 30.9933 40.344 31.0893 40.008C31.4573 38.68 32.5773 37.432 34.0013 37.432C35.7613 37.432 35.9533 38.792 35.9533 40.168V45H36.6253V41.096C36.6253 40.632 36.6733 40.232 36.7853 39.864C37.1373 38.616 38.2733 37.432 39.6013 37.432C41.2973 37.432 41.6013 38.664 41.6013 40.168V45H42.2733V39.928C42.2733 38.024 41.6653 36.808 39.6013 36.808C38.2253 36.808 37.0093 37.864 36.5613 38.984H36.5293C36.3533 37.56 35.6013 36.808 34.0013 36.808C32.7533 36.808 31.3293 37.864 30.9293 39.064H30.8973C30.8973 39.064 30.9613 38.776 30.9613 38.408V37H30.2893V45ZM43.3768 45H44.0488V44.088C44.0488 43.672 43.9848 43.384 43.9848 43.384H44.0168C44.0168 43.384 44.7688 45.192 46.7848 45.192C48.8808 45.192 50.3688 43.544 50.3688 41C50.3688 38.52 49.0568 36.808 46.9128 36.808C44.7048 36.808 44.0168 38.616 44.0168 38.616H43.9848C43.9848 38.616 44.0488 38.328 44.0488 37.96V33.8H43.3768V45ZM44.0328 41.016C44.0328 38.504 45.4088 37.464 46.8808 37.464C48.5128 37.464 49.6648 38.84 49.6648 41C49.6648 43.24 48.3848 44.536 46.8168 44.536C44.9448 44.536 44.0328 42.792 44.0328 41.016ZM50.9784 34.968H51.7784V33.8H50.9784V34.968ZM51.0424 45H51.7144V37H51.0424V45ZM52.2707 42.872C52.2707 44.472 53.6947 45.192 54.9907 45.192C57.0707 45.192 57.8067 43.224 57.7907 43.224H57.8227C57.8227 43.224 57.7587 43.512 57.7587 43.944V45H58.4307V39.832C58.4307 37.832 57.4387 36.808 55.5987 36.808C53.8547 36.808 52.8947 37.688 52.8947 37.688L53.2787 38.232C53.2787 38.232 54.1747 37.464 55.5667 37.464C56.8467 37.464 57.7587 38.072 57.7587 39.848V40.12H57.2307C55.8067 40.12 52.2707 40.152 52.2707 42.872ZM52.9747 42.824C52.9747 40.744 55.8867 40.744 57.2467 40.744H57.7587V41.176C57.7587 42.76 56.7667 44.568 55.0227 44.568C53.6627 44.568 52.9747 43.672 52.9747 42.824Z" fill="black"/>
</svg>
