<svg width="32" height="51" viewBox="0 0 32 51" fill="none" xmlns="http://www.w3.org/2000/svg">
<path d="M11 5H21V27H11V5Z" fill="#E6E7E8"/>
<path d="M5 5C1.6865 5 0 7.4625 0 10.5V21.5C0 24.5375 1.6865 27 5 27H11V5H5Z" fill="#EC1C24"/>
<path d="M27 5H21V27H27C30.3135 27 32 24.5375 32 21.5V10.5C32 7.4625 30.3135 5 27 5Z" fill="#EC1C24"/>
<path d="M3.728 47H4.416V42.36H7.408C9.36 42.36 10.816 41.096 10.816 39.064C10.816 37.032 9.36 35.8 7.408 35.8H3.728V47ZM4.416 41.72V36.44H7.376C9.008 36.44 10.096 37.384 10.096 39.064C10.096 40.744 9.008 41.72 7.376 41.72H4.416ZM10.6699 43.016C10.6699 45.56 12.5419 47.192 14.7979 47.192C16.5259 47.192 17.6459 46.088 17.6459 46.088L17.2779 45.528C17.2779 45.528 16.3339 46.536 14.7979 46.536C12.9419 46.536 11.3739 45.208 11.3739 42.888H17.7899C17.7899 42.888 17.8219 42.632 17.8219 42.456C17.8219 40.52 16.7339 38.808 14.5579 38.808C12.5099 38.808 10.6699 40.312 10.6699 43.016ZM11.4219 42.264C11.7099 40.392 13.0699 39.432 14.5419 39.432C15.8699 39.432 17.0379 40.312 17.1179 42.264H11.4219ZM18.4736 47H19.1456V43.544C19.1456 43.016 19.2096 42.424 19.3856 41.864C19.7376 40.68 20.5216 39.624 21.7696 39.624C21.9456 39.624 22.1376 39.656 22.1376 39.656V38.984C22.1376 38.984 21.9136 38.936 21.6736 38.936C20.4096 38.936 19.5136 39.944 19.1136 41.176H19.0816C19.0816 41.176 19.1456 40.888 19.1456 40.52V39H18.4736V47ZM22.1679 44.072C22.1679 46.104 22.8399 47.192 24.8079 47.192C26.7439 47.192 27.8479 45.688 28.1199 44.936H28.1519C28.1519 44.936 28.0879 45.224 28.0879 45.592V47H28.7599V39H28.0879V42.904C28.0879 44.776 26.8079 46.536 24.8079 46.536C23.0159 46.536 22.8399 45.224 22.8399 43.832V39H22.1679V44.072ZM25.0959 37.576H25.7999L27.0639 35.8H26.1679L25.0959 37.576Z" fill="black"/>
</svg>
