<svg width="32" height="51" viewBox="0 0 32 51" fill="none" xmlns="http://www.w3.org/2000/svg">
<path d="M32 21.5C32 24.5375 30.3135 27 27 27H5C1.6865 27 0 24.5375 0 21.5V10.5C0 7.4625 1.6865 5 5 5H27C30.3135 5 32 7.4625 32 10.5V21.5Z" fill="#128807"/>
<path d="M28.5701 16.395L16.0751 25.175L3.57959 16.395L16.0751 7.61499L28.5701 16.395Z" fill="#F9CB38"/>
<path fill-rule="evenodd" clip-rule="evenodd" d="M21.0052 17.9239C20.4362 19.8574 18.6557 21.3294 16.6397 21.5294C13.9462 21.7989 11.5897 20.0869 11.0167 17.4404C10.8472 16.6627 10.8688 15.8555 11.0797 15.0879C11.1582 15.0029 11.2667 14.9824 11.3747 14.9674C12.1625 14.8581 12.9589 14.8234 13.7532 14.8639C14.6007 14.9119 15.4412 15.0294 16.2582 15.2604C17.0967 15.4979 17.9087 15.8079 18.6752 16.2199C19.2521 16.5264 19.8031 16.8792 20.3227 17.2749C20.4987 17.4114 20.6782 17.5454 20.8472 17.6909C20.9227 17.7559 20.9817 17.8259 21.0047 17.9239" fill="#002776"/>
<path fill-rule="evenodd" clip-rule="evenodd" d="M11.3623 14.3056C12.0078 12.8631 13.0963 11.9026 14.6008 11.4516C17.6308 10.5431 20.7393 12.5456 21.1898 15.6686C21.2598 16.1511 21.2628 16.6351 21.1888 17.1186C21.1123 17.1471 21.0553 17.1066 21.0028 17.0631C20.4537 16.6143 19.8678 16.2126 19.2513 15.8621C18.7766 15.5927 18.2834 15.3574 17.7753 15.1581C17.6853 15.1226 17.5723 15.1041 17.5413 14.9836C17.5738 14.9256 17.6148 14.8751 17.6638 14.8281C17.6813 14.8101 17.7068 14.7926 17.6833 14.7626C17.6753 14.7531 17.6588 14.7531 17.6448 14.7546C17.6073 14.7586 17.6123 14.7846 17.6138 14.8121C17.6168 14.9016 17.5648 14.9591 17.4963 15.0051C17.3748 15.0326 17.2583 14.9961 17.1598 14.9436C16.8778 14.7956 16.5658 14.7451 16.2673 14.6626C15.8018 14.5361 15.3238 14.4646 14.8468 14.3901C14.4661 14.3293 14.0829 14.2856 13.6983 14.2591C13.3483 14.2346 12.9918 14.2381 12.6393 14.2621C12.2548 14.2891 11.8693 14.3161 11.4868 14.3621C11.4628 14.3656 11.4383 14.3621 11.4163 14.3521C11.3942 14.3421 11.3755 14.3259 11.3623 14.3056Z" fill="#002776"/>
<path fill-rule="evenodd" clip-rule="evenodd" d="M17.5451 14.9526C17.5431 15.0136 17.5976 15.0056 17.6306 15.0186C18.9218 15.5209 20.1225 16.2302 21.1856 17.1186C21.1549 17.3929 21.0942 17.663 21.0046 17.9241C20.3791 17.4051 19.7386 16.9106 19.0301 16.5066C16.7906 15.2311 14.3926 14.7256 11.8291 14.9966C11.5791 15.0221 11.3291 15.0561 11.0791 15.0866C11.1436 14.8161 11.2256 14.5506 11.3601 14.3046C13.2316 14.0521 15.0706 14.1956 16.8751 14.7541C17.0991 14.8236 17.3126 14.9356 17.5516 14.9566L17.5451 14.9511" fill="#FEFEFE"/>
<path fill-rule="evenodd" clip-rule="evenodd" d="M19.8752 18.1749C19.7247 18.1589 19.8882 18.3434 19.7362 18.3394C19.6037 18.3374 19.5967 18.2314 19.5317 18.1724C19.5817 18.1204 19.6702 18.1099 19.6982 18.0289C19.7172 18.1144 19.7977 18.1324 19.8752 18.1749Z" fill="#D9DFEA"/>
<path fill-rule="evenodd" clip-rule="evenodd" d="M14.197 19.1C14.0555 19.1165 14.174 19.2705 14.0555 19.273C13.936 19.2755 13.8745 19.187 13.8505 19.0955C13.842 19.0695 13.957 19.0115 14.0135 18.9685C14.0205 19.059 14.1145 19.055 14.197 19.1Z" fill="#E9ECF3"/>
<path fill-rule="evenodd" clip-rule="evenodd" d="M16.07 18.8215C15.8735 18.9485 16.032 18.6615 15.9165 18.6895C15.954 18.6295 16.06 18.6435 16.067 18.5515C16.117 18.6035 16.1595 18.6635 16.239 18.6745C16.1255 18.659 16.249 18.911 16.07 18.8215Z" fill="#EDEFF5"/>
<path fill-rule="evenodd" clip-rule="evenodd" d="M12.0101 15.4524C11.9631 15.5419 11.9276 15.6419 11.7851 15.5819C11.7121 15.5514 11.7901 15.4514 11.7026 15.4419L11.8646 15.2994C11.8756 15.3229 11.8886 15.3454 11.8996 15.3689C11.9126 15.4284 12.0311 15.3494 12.0101 15.4524Z" fill="#F0F2F6"/>
<path fill-rule="evenodd" clip-rule="evenodd" d="M12.4639 17.6252C12.3894 17.6487 12.4429 17.8447 12.2829 17.7592C12.2669 17.7512 12.1969 17.7897 12.2099 17.7672C12.2519 17.6852 12.1579 17.6452 12.1724 17.5797C12.2599 17.6177 12.2549 17.4577 12.3444 17.5007C12.3509 17.5057 12.3509 17.5257 12.3554 17.5387C12.3649 17.6007 12.4859 17.5232 12.4639 17.6252Z" fill="#ECEFF4"/>
<path fill-rule="evenodd" clip-rule="evenodd" d="M11.6773 18.2041C11.5238 18.2576 11.6383 18.0721 11.5503 18.0736C11.5913 18.0391 11.6373 17.9746 11.6783 17.9771C11.7273 17.9796 11.7723 18.0401 11.8173 18.0746C11.7503 18.0971 11.8208 18.2786 11.6773 18.2041Z" fill="#D9DFEA"/>
<path fill-rule="evenodd" clip-rule="evenodd" d="M17.6102 19.9737C17.4477 20.0477 17.6057 19.8292 17.4972 19.8577C17.4862 19.7742 17.6217 19.8247 17.6047 19.7367L17.7512 19.8542C17.6917 19.8812 17.7512 20.0512 17.6102 19.9737Z" fill="#D8DEEA"/>
<path fill-rule="evenodd" clip-rule="evenodd" d="M18.6504 19.8529C18.5159 19.9089 18.5984 19.7279 18.5259 19.7099C18.5749 19.6784 18.6264 19.6449 18.6744 19.6124C18.6784 19.6864 18.7799 19.6594 18.7909 19.7249C18.7154 19.7294 18.7939 19.8924 18.6504 19.8529Z" fill="#DCE1EC"/>
<path fill-rule="evenodd" clip-rule="evenodd" d="M19.585 19.18C19.432 19.2575 19.545 19.054 19.4575 19.0625C19.475 18.9975 19.5755 19.022 19.5815 18.947L19.725 19.0545C19.6375 19.052 19.745 19.2665 19.585 19.18Z" fill="#DCE1EC"/>
<path fill-rule="evenodd" clip-rule="evenodd" d="M13.3917 18.2465C13.2317 18.337 13.3362 18.1345 13.2622 18.1305C13.2697 18.056 13.3827 18.088 13.3877 18.009C13.4027 18.082 13.4997 18.061 13.5207 18.1265C13.4252 18.1125 13.5612 18.342 13.3917 18.2465Z" fill="#D4DAE7"/>
<path fill-rule="evenodd" clip-rule="evenodd" d="M14.0401 16.7277C13.9496 16.7217 14.0656 16.5792 13.9546 16.5882C13.9736 16.5082 14.0591 16.5247 14.1061 16.4832C14.1301 16.5337 14.1981 16.5452 14.2016 16.6177C14.2096 16.7502 14.0921 16.6817 14.0401 16.7277Z" fill="#F2F4F7"/>
<path fill-rule="evenodd" clip-rule="evenodd" d="M16.6754 17.7836C16.5369 17.8631 16.6099 17.6856 16.5459 17.6661C16.5894 17.6301 16.6314 17.5936 16.6754 17.5566C16.6784 17.6306 16.8199 17.6141 16.7799 17.6711C16.7559 17.7051 16.8334 17.8606 16.6754 17.7836Z" fill="#E6E9F1"/>
<path fill-rule="evenodd" clip-rule="evenodd" d="M16.055 17.3382C15.897 17.3542 16.06 17.2107 15.9575 17.2142C15.9975 17.1767 16.036 17.1127 16.081 17.1087C16.12 17.1047 16.165 17.1682 16.2075 17.2032C16.152 17.2567 16.1605 17.3947 16.055 17.3382Z" fill="#EAEDF3"/>
<path fill-rule="evenodd" clip-rule="evenodd" d="M19.891 18.5051C19.9235 18.5911 19.9875 18.6026 20.0375 18.6331C19.9865 18.6906 19.9665 18.7786 19.8605 18.7786C19.752 18.7796 19.8255 18.6971 19.801 18.6586C19.7405 18.5626 19.964 18.6436 19.891 18.5051Z" fill="#E4E8F0"/>
<path fill-rule="evenodd" clip-rule="evenodd" d="M18.7594 20.2471C18.7214 20.3036 18.7474 20.3576 18.6464 20.3596C18.5309 20.3616 18.5679 20.2771 18.5629 20.2511C18.5534 20.2081 18.6194 20.1671 18.6574 20.1756C18.6904 20.1816 18.7544 20.2001 18.7594 20.2471Z" fill="#CED5E4"/>
<path fill-rule="evenodd" clip-rule="evenodd" d="M13.3572 18.6452C13.2747 18.6547 13.3432 18.7627 13.2387 18.7592C13.1432 18.7562 13.1572 18.6917 13.1467 18.6527C13.1302 18.5982 13.2107 18.5997 13.2287 18.5587C13.2667 18.5852 13.3052 18.6117 13.3572 18.6452Z" fill="#DAE0EB"/>
<path fill-rule="evenodd" clip-rule="evenodd" d="M18.5352 19.2161C18.5707 19.1896 18.6062 19.1651 18.6437 19.1401C18.6467 19.1956 18.7662 19.1636 18.7262 19.2346C18.7097 19.2631 18.7502 19.3411 18.6467 19.3341C18.5537 19.3276 18.5757 19.2626 18.5352 19.2161Z" fill="#D8DEE9"/>
<path fill-rule="evenodd" clip-rule="evenodd" d="M18.1553 19.3875C18.1373 19.486 18.0813 19.502 18.0198 19.5135C17.9153 19.531 17.9938 19.4525 17.9768 19.4225C17.9328 19.3475 18.0438 19.362 18.0568 19.313C18.0858 19.351 18.1523 19.35 18.1553 19.3875Z" fill="#CBD2E3"/>
<path fill-rule="evenodd" clip-rule="evenodd" d="M17.57 16.145C17.535 16.1615 17.5815 16.245 17.5065 16.221C17.4495 16.2015 17.3795 16.1745 17.3845 16.1045C17.3865 16.0775 17.4545 16.055 17.4925 16.0315C17.499 16.082 17.607 16.0655 17.57 16.145Z" fill="#D1D8E6"/>
<path fill-rule="evenodd" clip-rule="evenodd" d="M20.3997 18.3381C20.3057 18.3751 20.3482 18.2976 20.3317 18.2751C20.2687 18.1896 20.3932 18.2021 20.3997 18.1511C20.4382 18.1766 20.5132 18.2056 20.5102 18.2276C20.508 18.2562 20.4957 18.2831 20.4754 18.3033C20.4551 18.3236 20.4283 18.3359 20.3997 18.3381Z" fill="#DADFEA"/>
<path fill-rule="evenodd" clip-rule="evenodd" d="M15.5651 17.5751C15.5651 17.6331 15.6821 17.6101 15.6426 17.6826C15.6266 17.7121 15.6606 17.7911 15.5796 17.7746C15.5181 17.7621 15.4561 17.7261 15.4541 17.6651C15.4541 17.6366 15.5251 17.6061 15.5651 17.5751Z" fill="#CAD2E2"/>
<path fill-rule="evenodd" clip-rule="evenodd" d="M17.165 19.3839C17.119 19.3624 17.117 19.3019 17.12 19.2729C17.125 19.2344 17.1765 19.1824 17.2205 19.2034C17.2475 19.2164 17.324 19.2089 17.3055 19.2789C17.2885 19.3459 17.2215 19.3554 17.165 19.3839Z" fill="#D0D7E5"/>
<path fill-rule="evenodd" clip-rule="evenodd" d="M19.1001 19.2961C19.1021 19.2956 19.1371 19.2471 19.1766 19.2461C19.2051 19.2451 19.2341 19.3041 19.2646 19.3371C19.2236 19.3486 19.2586 19.4241 19.1776 19.4231C19.1046 19.4216 19.1046 19.3886 19.1001 19.2961Z" fill="#EFF2F6"/>
<path fill-rule="evenodd" clip-rule="evenodd" d="M15.883 18.0302C15.8695 18.0842 15.8695 18.1177 15.8215 18.1167C15.7725 18.1157 15.7485 18.0977 15.7495 18.0477C15.7495 18.0082 15.7755 17.9807 15.805 17.9832C15.839 17.9857 15.8875 17.9952 15.883 18.0302Z" fill="#CCD4E3"/>
<path fill-rule="evenodd" clip-rule="evenodd" d="M12.8175 17.2521C12.8415 17.2781 12.869 17.2986 12.8795 17.3251C12.8885 17.3471 12.8745 17.3806 12.8435 17.3841C12.809 17.3871 12.772 17.3861 12.761 17.3431C12.751 17.3011 12.7875 17.2861 12.8175 17.2521Z" fill="#E0E5EE"/>
<path fill-rule="evenodd" clip-rule="evenodd" d="M12.464 17.6252C12.4505 17.5677 12.3615 17.6042 12.3555 17.5382C12.3745 17.5882 12.523 17.4767 12.464 17.6252Z" fill="#7085B1"/>
<path fill-rule="evenodd" clip-rule="evenodd" d="M12.0104 15.4526C11.9994 15.3911 11.9049 15.4396 11.8999 15.3691C11.9264 15.4111 12.0604 15.3116 12.0104 15.4526Z" fill="#5C75A7"/>
<path fill-rule="evenodd" clip-rule="evenodd" d="M17.5554 14.9581C17.5649 14.9201 17.5954 14.8581 17.5834 14.8466C17.4204 14.7016 17.6379 14.6771 17.6704 14.6476C17.7299 14.5901 17.7204 14.8326 17.8774 14.6791C17.7929 14.8666 17.6799 14.9206 17.5499 14.9526L17.5554 14.9581Z" fill="#E7EAF2"/>
<path fill-rule="evenodd" clip-rule="evenodd" d="M12.7359 14.8026C12.5769 14.7871 12.7184 14.5802 12.6839 14.4602C12.6409 14.3052 12.7539 14.3072 12.8639 14.3067C13.0344 14.3057 13.1309 14.3777 13.1309 14.5577C13.1304 14.7347 13.0484 14.8046 12.7359 14.8026Z" fill="#15A24A"/>
<path fill-rule="evenodd" clip-rule="evenodd" d="M18.8109 15.8017C18.7759 15.9087 18.6464 15.9757 18.6244 16.1077C18.6224 16.1252 18.5724 16.1217 18.5629 16.0707C18.5229 15.8317 18.5209 15.8322 18.3444 15.9602C18.3304 15.9707 18.3059 15.9802 18.2924 15.9757C18.2664 15.9642 18.2559 15.9382 18.2714 15.9087C18.3299 15.7947 18.3849 15.6777 18.4504 15.5672C18.4944 15.4942 18.5479 15.5552 18.5909 15.5762C18.6854 15.6227 18.8019 15.6492 18.8109 15.8017Z" fill="#13A248"/>
<path fill-rule="evenodd" clip-rule="evenodd" d="M19.2582 16.1907C19.1662 16.2277 19.1218 16.1582 19.0628 16.1332C19.0228 16.1162 18.9853 16.1002 18.9583 16.1447C18.9288 16.1917 18.9583 16.2187 18.9988 16.2397C19.0298 16.2552 19.0628 16.2672 19.0858 16.2917C19.1263 16.3342 19.2533 16.3227 19.2018 16.4132C19.1613 16.4852 19.0933 16.4012 19.0483 16.3747C18.9708 16.3272 18.8173 16.3012 18.8338 16.2187C18.8593 16.0862 18.9348 15.9422 19.0353 15.8512C19.1158 15.7782 19.2048 15.9162 19.2953 15.9507C19.3343 15.9652 19.4008 15.9782 19.3893 16.0397C19.3783 16.1032 19.3313 16.0662 19.2953 16.0577C19.2108 16.0382 19.1288 15.8952 19.0623 15.9942C19.0223 16.0532 19.1868 16.0777 19.2388 16.1427C19.2468 16.1522 19.2487 16.1652 19.2582 16.1907Z" fill="#11A147"/>
<path fill-rule="evenodd" clip-rule="evenodd" d="M20.3357 16.8975C20.3507 17.0145 20.3032 17.094 20.1807 17.074C20.0537 17.053 19.9572 16.9755 19.9352 16.8365C19.9332 16.8225 19.9502 16.794 19.9642 16.79C19.9723 16.7874 19.9808 16.7865 19.9892 16.7875C19.9977 16.7886 20.0057 16.7914 20.0129 16.7959C20.0201 16.8004 20.0263 16.8064 20.0309 16.8135C20.0355 16.8206 20.0385 16.8286 20.0397 16.837C20.0557 16.9325 20.1057 16.975 20.2062 16.977C20.2257 16.8205 19.9432 16.749 20.1057 16.5865C20.1872 16.505 20.2867 16.5725 20.3577 16.638C20.4232 16.6975 20.5032 16.763 20.3837 16.848C20.3667 16.839 20.3437 16.8245 20.3312 16.8345C20.3057 16.8515 20.3307 16.876 20.3357 16.8975Z" fill="#11A147"/>
<path fill-rule="evenodd" clip-rule="evenodd" d="M16.8822 15.4085C16.8227 15.375 16.8257 15.343 16.8352 15.308C16.8542 15.2335 16.8157 15.1945 16.7477 15.1735C16.6797 15.1515 16.6272 15.1545 16.6087 15.2395C16.6022 15.2775 16.5822 15.304 16.5407 15.29C16.4927 15.2725 16.5167 15.2335 16.5257 15.205C16.5447 15.1395 16.5617 15.0735 16.5917 15.011C16.6187 14.9485 16.5997 14.834 16.6982 14.8415C16.8027 14.849 16.9157 14.874 16.9952 14.9605C17.0307 14.9985 17.0452 15.064 17.0162 15.0925C16.9317 15.1795 16.9387 15.3025 16.8822 15.4085Z" fill="#0FA046"/>
<path fill-rule="evenodd" clip-rule="evenodd" d="M13.7968 14.772C13.6353 14.833 13.5078 14.7975 13.3833 14.8C13.3268 14.8015 13.3218 14.759 13.3218 14.716C13.3258 14.6685 13.3258 14.6205 13.3258 14.573C13.3318 14.3095 13.4253 14.242 13.6843 14.3155C13.7133 14.3235 13.7408 14.3285 13.7428 14.361C13.7428 14.406 13.7103 14.414 13.6703 14.413C13.6648 14.412 13.6583 14.4105 13.6513 14.4115C13.5738 14.4305 13.4348 14.343 13.4323 14.459C13.4293 14.548 13.5808 14.485 13.6583 14.515C13.6693 14.5195 13.6813 14.5295 13.6983 14.542C13.6493 14.6305 13.5678 14.581 13.5048 14.5915C13.4673 14.5975 13.4183 14.581 13.4128 14.642C13.4058 14.714 13.4558 14.7105 13.5048 14.7155C13.5883 14.7255 13.6788 14.694 13.7968 14.772Z" fill="#0B9F43"/>
<path fill-rule="evenodd" clip-rule="evenodd" d="M12.4694 14.8102C12.3824 14.7912 12.3944 14.7412 12.3794 14.7062C12.3534 14.6417 12.3019 14.6417 12.2454 14.6462C12.1809 14.6522 12.1459 14.6772 12.1514 14.7487C12.1554 14.7837 12.1694 14.8402 12.1044 14.8322C12.0484 14.8252 12.0644 14.7707 12.0614 14.7337C12.0564 14.6732 12.0504 14.6112 12.0564 14.5512C12.0644 14.4842 12.0004 14.3817 12.0969 14.3577C12.1964 14.3317 12.3114 14.3132 12.4149 14.3627C12.4599 14.3842 12.4954 14.4367 12.4789 14.4792C12.4409 14.5862 12.4709 14.6947 12.4694 14.8102Z" fill="#079D3F"/>
<path fill-rule="evenodd" clip-rule="evenodd" d="M11.4136 14.6402C11.4296 14.5047 11.4891 14.3947 11.6376 14.3997C11.7801 14.4042 11.8561 14.5032 11.8561 14.6457C11.8561 14.7872 11.7901 14.8847 11.6396 14.8837C11.4866 14.8827 11.4346 14.7717 11.4136 14.6402Z" fill="#15A24A"/>
<path fill-rule="evenodd" clip-rule="evenodd" d="M20.932 17.1802C20.918 17.3147 20.8515 17.4162 20.698 17.4297C20.5565 17.4412 20.4815 17.3602 20.4705 17.2272C20.458 17.0927 20.59 16.9642 20.7245 16.9652C20.8426 16.9662 20.929 17.0517 20.932 17.1802Z" fill="#11A147"/>
<path fill-rule="evenodd" clip-rule="evenodd" d="M18.1252 15.6151C18.2382 15.7061 18.1012 15.7661 18.0962 15.8426C18.0022 15.7991 17.8847 15.8166 17.8087 15.7341C17.7277 15.6461 17.7427 15.5466 17.7957 15.4496C17.8542 15.3471 17.9442 15.3031 18.0547 15.3421C18.1557 15.3781 18.2312 15.4461 18.1822 15.5741C18.1047 15.5881 18.0412 15.4861 17.9322 15.5546C18.0047 15.5881 18.0917 15.5416 18.1252 15.6151Z" fill="#0C9F43"/>
<path fill-rule="evenodd" clip-rule="evenodd" d="M15.4053 14.5852C15.3393 14.6627 15.2908 14.6327 15.2453 14.6337C15.2013 14.6337 15.1543 14.5972 15.0998 14.6427C15.1488 14.7227 15.2673 14.6712 15.3133 14.7507C15.3068 14.7622 15.3038 14.7777 15.2953 14.7857C15.2293 14.8377 15.1238 14.7117 15.0828 14.8157C15.0453 14.9052 15.1438 14.8742 15.1863 14.8892C15.2343 14.9082 15.2938 14.9012 15.3518 14.9662C15.2173 15.0252 15.0568 14.9977 15.0013 14.9327C14.9138 14.8302 14.9753 14.6482 15.0418 14.5572C15.1203 14.4497 15.2638 14.5547 15.4053 14.5852Z" fill="#19A44D"/>
<path fill-rule="evenodd" clip-rule="evenodd" d="M16.2576 15.0201C16.1441 15.0081 16.0151 14.9281 15.9826 15.1151C15.9816 15.1211 15.9421 15.1296 15.9301 15.1216C15.9166 15.1141 15.9091 15.0861 15.9116 15.0701C15.9411 14.9516 15.9561 14.8246 16.0086 14.7181C16.0696 14.5981 16.1731 14.6996 16.2586 14.7111C16.3606 14.7246 16.4171 14.7866 16.4061 14.8941C16.3961 14.9866 16.3261 15.0116 16.2576 15.0201Z" fill="#0D9F44"/>
<path fill-rule="evenodd" clip-rule="evenodd" d="M17.6101 15.3067C17.5991 15.4572 17.5251 15.5612 17.3746 15.5657C17.2401 15.5707 17.1646 15.4762 17.1676 15.3422C17.1716 15.1972 17.2421 15.0922 17.3986 15.0877C17.5421 15.0827 17.5976 15.1792 17.6101 15.3067Z" fill="#0FA046"/>
<path fill-rule="evenodd" clip-rule="evenodd" d="M14.2399 14.7636C14.2234 14.7991 14.2099 14.8496 14.1624 14.8381C14.0799 14.8186 14.1169 14.7391 14.0969 14.6871C14.0359 14.6276 14.0519 14.7096 14.0329 14.7246C14.0259 14.7616 14.0429 14.8181 13.9929 14.8256C13.9314 14.8331 13.9459 14.7741 13.9474 14.7391C13.9524 14.6661 13.9534 14.5896 13.9734 14.5196C13.9909 14.4596 13.9274 14.3491 14.0469 14.3481C14.1524 14.3476 14.1294 14.4551 14.1429 14.5196C14.1569 14.5936 14.1644 14.6251 14.2249 14.5516C14.2874 14.5351 14.3004 14.5806 14.3149 14.6246C14.3229 14.6886 14.2944 14.7331 14.2399 14.7636Z" fill="#0EA044"/>
<path fill-rule="evenodd" clip-rule="evenodd" d="M19.5651 16.6C19.6021 16.6 19.6396 16.649 19.6756 16.607C19.7031 16.5755 19.6786 16.5445 19.6541 16.519C19.6361 16.4995 19.6171 16.481 19.6001 16.46C19.5491 16.3985 19.4776 16.3395 19.5481 16.2505C19.6121 16.169 19.6866 16.189 19.7606 16.2405C19.7741 16.2665 19.7696 16.2915 19.7556 16.315C19.7011 16.4005 19.8026 16.4525 19.8006 16.5255C19.8161 16.594 19.8261 16.663 19.7506 16.7025C19.6566 16.7525 19.5841 16.7065 19.5151 16.6465C19.5076 16.607 19.5221 16.5875 19.5651 16.6Z" fill="#10A146"/>
<path fill-rule="evenodd" clip-rule="evenodd" d="M18.1252 15.615C18.0867 15.642 18.0092 15.5545 18.0117 15.6205C18.0167 15.7375 17.9582 15.727 17.9037 15.6925C17.8302 15.647 17.8262 15.569 17.8727 15.497C17.9177 15.4265 17.9813 15.3855 18.0583 15.443C18.1053 15.4775 18.1407 15.5295 18.1812 15.574L18.1252 15.615Z" fill="#ECF7F0"/>
<path fill-rule="evenodd" clip-rule="evenodd" d="M14.2726 14.6449C14.258 14.6141 14.242 14.5839 14.2246 14.5544C14.2421 14.5099 14.2581 14.4649 14.2791 14.4219C14.2981 14.3814 14.3311 14.3589 14.3776 14.3739C14.4296 14.3914 14.4256 14.4314 14.4226 14.4734C14.4116 14.5959 14.4016 14.7179 14.3921 14.8404C14.3191 14.8869 14.3006 14.8444 14.2886 14.7814C14.2796 14.7359 14.3031 14.6869 14.2726 14.6449Z" fill="#17A34C"/>
<path fill-rule="evenodd" clip-rule="evenodd" d="M19.8023 16.5251C19.7573 16.4791 19.7093 16.4356 19.6673 16.3866C19.6183 16.3286 19.6373 16.2931 19.7103 16.2836C19.8158 16.3071 19.8803 16.3581 19.8493 16.4791C19.8348 16.4941 19.8188 16.5101 19.8023 16.5251Z" fill="#D7EFE0"/>
<path fill-rule="evenodd" clip-rule="evenodd" d="M19.8495 16.479C19.801 16.416 19.7879 16.326 19.7104 16.2835L19.7624 16.24C19.8465 16.2995 20 16.3335 19.8495 16.479Z" fill="#2BAB5B"/>
<path fill-rule="evenodd" clip-rule="evenodd" d="M20.3359 16.8977C20.3294 16.8937 20.3209 16.8917 20.3179 16.8862C20.2779 16.8122 20.1454 16.7457 20.1904 16.6802C20.2469 16.6012 20.3059 16.6947 20.3369 16.7622C20.3509 16.7907 20.3679 16.8187 20.3839 16.8482C20.3674 16.8647 20.3509 16.8812 20.3359 16.8977Z" fill="#E6F5EC"/>
<path fill-rule="evenodd" clip-rule="evenodd" d="M19.5651 16.6001C19.5491 16.6156 19.5336 16.6316 19.5151 16.6471C19.4941 16.6321 19.4651 16.6216 19.4516 16.6001C19.4261 16.5516 19.3531 16.4871 19.4376 16.4491C19.5086 16.4151 19.5086 16.5056 19.5316 16.5496C19.5411 16.5681 19.5531 16.5836 19.5651 16.6001Z" fill="#29AA59"/>
<path fill-rule="evenodd" clip-rule="evenodd" d="M14.2728 14.645C14.3458 14.6735 14.3073 14.7345 14.3083 14.78C14.3123 14.8425 14.3343 14.8635 14.3928 14.8415C14.2708 14.9595 14.2863 14.802 14.2393 14.767C14.2518 14.7255 14.2613 14.685 14.2728 14.645Z" fill="#DDF1E4"/>
<path fill-rule="evenodd" clip-rule="evenodd" d="M14.0303 14.7251V14.5641C14.0993 14.5861 14.1013 14.6346 14.0943 14.6876C14.0733 14.7001 14.0513 14.7121 14.0303 14.7251Z" fill="#6FC690"/>
<path fill-rule="evenodd" clip-rule="evenodd" d="M12.7842 14.5601C12.7912 14.4871 12.7562 14.3921 12.8807 14.4001C12.9717 14.4056 13.0377 14.4421 13.0427 14.5461C13.0477 14.6581 12.9822 14.7036 12.8787 14.7111C12.7472 14.7216 12.8007 14.6181 12.7842 14.5601Z" fill="#F5FBF7"/>
<path fill-rule="evenodd" clip-rule="evenodd" d="M18.5503 15.66C18.6023 15.6885 18.6818 15.694 18.6988 15.771C18.7073 15.811 18.6728 15.8375 18.6373 15.826C18.5713 15.806 18.4838 15.805 18.4748 15.712C18.4723 15.685 18.5013 15.651 18.5503 15.66Z" fill="#EFF8F3"/>
<path fill-rule="evenodd" clip-rule="evenodd" d="M16.9286 15.0449C16.9151 15.0969 16.8786 15.1149 16.8366 15.0994C16.7801 15.0789 16.6891 15.1014 16.6881 15.0024C16.6861 14.9509 16.7211 14.9354 16.7681 14.9509C16.8301 14.9709 16.9051 14.9684 16.9286 15.0449Z" fill="#DEF2E5"/>
<path fill-rule="evenodd" clip-rule="evenodd" d="M12.2577 14.4296C12.3067 14.4356 12.3842 14.4096 12.3792 14.4931C12.3742 14.5661 12.3002 14.5546 12.2472 14.5556C12.2047 14.5571 12.1437 14.5791 12.1397 14.5026C12.1367 14.4116 12.2077 14.4401 12.2577 14.4296Z" fill="#F3FAF5"/>
<path fill-rule="evenodd" clip-rule="evenodd" d="M11.6251 14.499C11.7156 14.505 11.7606 14.559 11.7641 14.644C11.7691 14.72 11.7316 14.785 11.6536 14.792C11.5636 14.8005 11.5231 14.732 11.5181 14.6485C11.5131 14.5715 11.5431 14.5155 11.6251 14.499Z" fill="#F3FAF6"/>
<path fill-rule="evenodd" clip-rule="evenodd" d="M20.8325 17.1974C20.8195 17.2804 20.7695 17.3389 20.673 17.3389C20.5955 17.3379 20.5665 17.2814 20.5745 17.2129C20.582 17.1199 20.6375 17.0599 20.732 17.0614C20.8065 17.0634 20.8355 17.1169 20.8325 17.1974Z" fill="#F9FCFA"/>
<path fill-rule="evenodd" clip-rule="evenodd" d="M16.1404 14.7742C16.1909 14.8052 16.2924 14.7732 16.3069 14.8732C16.3114 14.9112 16.2694 14.9307 16.2359 14.9232C16.1704 14.9087 16.0789 14.9322 16.0709 14.8267C16.0694 14.7942 16.0839 14.7592 16.1404 14.7742Z" fill="#E7F5EC"/>
<path fill-rule="evenodd" clip-rule="evenodd" d="M17.5102 15.3184C17.5007 15.4049 17.4582 15.4654 17.3707 15.4654C17.2847 15.4664 17.2542 15.4064 17.2582 15.3274C17.2652 15.2404 17.3147 15.1824 17.3992 15.1789C17.4832 15.1759 17.5102 15.2429 17.5102 15.3184Z" fill="#F5FBF7"/>
<path d="M2.728 47H6.648C8.44 47 9.768 45.784 9.768 43.912C9.768 42.472 8.968 41.384 7.864 41.08V41.048C8.728 40.632 9.32 39.816 9.32 38.6C9.32 36.888 8.12 35.8 6.488 35.8H2.728V47ZM3.416 40.792V36.44H6.456C7.768 36.44 8.6 37.288 8.6 38.6C8.6 39.928 7.72 40.792 6.472 40.792H3.416ZM3.416 46.36V41.432H6.568C8.008 41.432 9.048 42.392 9.048 43.912C9.048 45.432 8.088 46.36 6.584 46.36H3.416ZM10.7142 47H11.3862V43.544C11.3862 43.016 11.4502 42.424 11.6262 41.864C11.9782 40.68 12.7622 39.624 14.0102 39.624C14.1862 39.624 14.3782 39.656 14.3782 39.656V38.984C14.3782 38.984 14.1542 38.936 13.9142 38.936C12.6502 38.936 11.7542 39.944 11.3542 41.176H11.3222C11.3222 41.176 11.3862 40.888 11.3862 40.52V39H10.7142V47ZM13.8645 44.872C13.8645 46.472 15.2885 47.192 16.5845 47.192C18.6645 47.192 19.4005 45.224 19.3845 45.224H19.4165C19.4165 45.224 19.3525 45.512 19.3525 45.944V47H20.0245V41.832C20.0245 39.832 19.0325 38.808 17.1925 38.808C15.4485 38.808 14.4885 39.688 14.4885 39.688L14.8725 40.232C14.8725 40.232 15.7685 39.464 17.1605 39.464C18.4405 39.464 19.3525 40.072 19.3525 41.848V42.12H18.8245C17.4005 42.12 13.8645 42.152 13.8645 44.872ZM14.5685 44.824C14.5685 42.744 17.4805 42.744 18.8405 42.744H19.3525V43.176C19.3525 44.76 18.3605 46.568 16.6165 46.568C15.2565 46.568 14.5685 45.672 14.5685 44.824ZM20.4356 46.04C20.4356 46.04 21.3956 47.192 23.3316 47.192C24.8036 47.192 25.8916 46.312 25.8916 45.032C25.8916 42.376 21.4916 43 21.4916 40.92C21.4916 39.88 22.3876 39.464 23.2996 39.464C24.6596 39.464 25.3156 40.216 25.3156 40.216L25.7156 39.672C25.7156 39.672 24.9796 38.808 23.3476 38.808C21.9876 38.808 20.7876 39.544 20.7876 40.968C20.7876 43.576 25.1876 43 25.1876 45.032C25.1876 46.024 24.3236 46.536 23.3476 46.536C21.7636 46.536 20.8676 45.528 20.8676 45.528L20.4356 46.04ZM26.4284 36.968H27.2284V35.8H26.4284V36.968ZM26.4924 47H27.1644V39H26.4924V47ZM28.2968 45.384C28.2968 46.888 29.4008 47.064 29.8648 47.064C30.0088 47.064 30.1528 47.032 30.1528 47.032V46.408C30.1528 46.408 30.0408 46.424 29.9128 46.424C29.5448 46.424 28.9688 46.296 28.9688 45.176V35.8H28.2968V45.384Z" fill="black"/>
</svg>
