<svg width="32" height="51" viewBox="0 0 32 51" fill="none" xmlns="http://www.w3.org/2000/svg">
<path d="M0 16V21.5C0 24.5375 1.6865 27 5 27H27C30.3135 27 32 24.5375 32 21.5V16H0Z" fill="#EC1C24"/>
<path d="M27 5H11.5V16H32V10.5C32 7.4625 30.3135 5 27 5Z" fill="#E6E7E8"/>
<path d="M11.5 5H5C1.6865 5 0 7.4625 0 10.5V16H11.5V5Z" fill="#2B3990"/>
<path d="M5.76012 6.99841L6.88362 9.27541L9.39862 9.64491L7.57962 11.4189L8.00962 13.9189L5.75962 12.7369L3.50962 13.9189L3.93962 11.4189L2.12012 9.64491L4.63512 9.27541L5.76012 6.99841Z" fill="#E6E7E8"/>
<path d="M1.976 41.32C1.976 44.568 4.328 47.192 7.592 47.192C10.312 47.192 11.816 45.496 11.816 45.496L11.384 45.016C11.384 45.016 9.992 46.536 7.592 46.536C4.776 46.536 2.696 44.232 2.696 41.32C2.696 38.424 4.792 36.264 7.544 36.264C9.784 36.264 11.112 37.528 11.112 37.528L11.528 37.016C11.528 37.016 10.184 35.608 7.528 35.608C4.376 35.608 1.976 38.072 1.976 41.32ZM12.558 47H13.23V43.096C13.23 42.712 13.262 42.344 13.358 42.008C13.758 40.52 15.086 39.464 16.59 39.464C18.382 39.464 18.558 40.776 18.558 42.168V47H19.23V41.928C19.23 40.04 18.67 38.808 16.59 38.808C14.59 38.808 13.47 40.312 13.198 41.064H13.166C13.166 41.064 13.23 40.776 13.23 40.408V35.8H12.558V47ZM20.269 36.968H21.069V35.8H20.269V36.968ZM20.333 47H21.005V39H20.333V47ZM22.1374 45.384C22.1374 46.888 23.2414 47.064 23.7054 47.064C23.8494 47.064 23.9934 47.032 23.9934 47.032V46.408C23.9934 46.408 23.8814 46.424 23.7534 46.424C23.3854 46.424 22.8094 46.296 22.8094 45.176V35.8H22.1374V45.384ZM23.7449 43.016C23.7449 45.56 25.6169 47.192 27.8729 47.192C29.6009 47.192 30.7209 46.088 30.7209 46.088L30.3529 45.528C30.3529 45.528 29.4089 46.536 27.8729 46.536C26.0169 46.536 24.4489 45.208 24.4489 42.888H30.8649C30.8649 42.888 30.8969 42.632 30.8969 42.456C30.8969 40.52 29.8089 38.808 27.6329 38.808C25.5849 38.808 23.7449 40.312 23.7449 43.016ZM24.4969 42.264C24.7849 40.392 26.1449 39.432 27.6169 39.432C28.9449 39.432 30.1129 40.312 30.1929 42.264H24.4969Z" fill="black"/>
</svg>
