<svg width="60" height="60" viewBox="0 0 60 60" fill="none" xmlns="http://www.w3.org/2000/svg">
<path d="M6 18.75H54V31.5H6V18.75Z" fill="#2B3990"/>
<path d="M46.5 7.5H13.5C8.52975 7.5 6 11.1938 6 15.75V24H54V15.75C54 11.1938 51.4702 7.5 46.5 7.5Z" fill="#F9CB38"/>
<path d="M6 32.25C6 36.8062 8.52975 40.5 13.5 40.5H46.5C51.4702 40.5 54 36.8062 54 32.25V31.5H6V32.25Z" fill="#EC1C24"/>
<path d="M0.976 50.32C0.976 53.568 3.328 56.192 6.592 56.192C9.312 56.192 10.816 54.496 10.816 54.496L10.384 54.016C10.384 54.016 8.992 55.536 6.592 55.536C3.776 55.536 1.696 53.232 1.696 50.32C1.696 47.424 3.792 45.264 6.544 45.264C8.784 45.264 10.112 46.528 10.112 46.528L10.528 46.016C10.528 46.016 9.184 44.608 6.528 44.608C3.376 44.608 0.976 47.072 0.976 50.32ZM10.966 51.952C10.966 54.336 12.822 56.192 15.11 56.192C17.398 56.192 19.254 54.336 19.254 51.952C19.254 49.616 17.398 47.808 15.11 47.808C12.822 47.808 10.966 49.616 10.966 51.952ZM11.67 51.952C11.67 49.968 13.206 48.464 15.11 48.464C17.014 48.464 18.55 49.968 18.55 51.952C18.55 53.984 17.014 55.536 15.11 55.536C13.206 55.536 11.67 53.984 11.67 51.952ZM19.7999 54.384C19.7999 55.888 20.9039 56.064 21.3679 56.064C21.5119 56.064 21.6559 56.032 21.6559 56.032V55.408C21.6559 55.408 21.5439 55.424 21.4159 55.424C21.0479 55.424 20.4719 55.296 20.4719 54.176V44.8H19.7999V54.384ZM21.3754 51.952C21.3754 54.336 23.2314 56.192 25.5194 56.192C27.8074 56.192 29.6634 54.336 29.6634 51.952C29.6634 49.616 27.8074 47.808 25.5194 47.808C23.2314 47.808 21.3754 49.616 21.3754 51.952ZM22.0794 51.952C22.0794 49.968 23.6154 48.464 25.5194 48.464C27.4234 48.464 28.9594 49.968 28.9594 51.952C28.9594 53.984 27.4234 55.536 25.5194 55.536C23.6154 55.536 22.0794 53.984 22.0794 51.952ZM30.2893 56H30.9613V52.096C30.9613 51.712 30.9933 51.344 31.0893 51.008C31.4573 49.68 32.5773 48.432 34.0013 48.432C35.7613 48.432 35.9533 49.792 35.9533 51.168V56H36.6253V52.096C36.6253 51.632 36.6733 51.232 36.7853 50.864C37.1373 49.616 38.2733 48.432 39.6013 48.432C41.2973 48.432 41.6013 49.664 41.6013 51.168V56H42.2733V50.928C42.2733 49.024 41.6653 47.808 39.6013 47.808C38.2253 47.808 37.0093 48.864 36.5613 49.984H36.5293C36.3533 48.56 35.6013 47.808 34.0013 47.808C32.7533 47.808 31.3293 48.864 30.9293 50.064H30.8973C30.8973 50.064 30.9613 49.776 30.9613 49.408V48H30.2893V56ZM43.3768 56H44.0488V55.088C44.0488 54.672 43.9848 54.384 43.9848 54.384H44.0168C44.0168 54.384 44.7688 56.192 46.7848 56.192C48.8808 56.192 50.3688 54.544 50.3688 52C50.3688 49.52 49.0568 47.808 46.9128 47.808C44.7048 47.808 44.0168 49.616 44.0168 49.616H43.9848C43.9848 49.616 44.0488 49.328 44.0488 48.96V44.8H43.3768V56ZM44.0328 52.016C44.0328 49.504 45.4088 48.464 46.8808 48.464C48.5128 48.464 49.6648 49.84 49.6648 52C49.6648 54.24 48.3848 55.536 46.8168 55.536C44.9448 55.536 44.0328 53.792 44.0328 52.016ZM50.9784 45.968H51.7784V44.8H50.9784V45.968ZM51.0424 56H51.7144V48H51.0424V56ZM52.2707 53.872C52.2707 55.472 53.6947 56.192 54.9907 56.192C57.0707 56.192 57.8067 54.224 57.7907 54.224H57.8227C57.8227 54.224 57.7587 54.512 57.7587 54.944V56H58.4307V50.832C58.4307 48.832 57.4387 47.808 55.5987 47.808C53.8547 47.808 52.8947 48.688 52.8947 48.688L53.2787 49.232C53.2787 49.232 54.1747 48.464 55.5667 48.464C56.8467 48.464 57.7587 49.072 57.7587 50.848V51.12H57.2307C55.8067 51.12 52.2707 51.152 52.2707 53.872ZM52.9747 53.824C52.9747 51.744 55.8867 51.744 57.2467 51.744H57.7587V52.176C57.7587 53.76 56.7667 55.568 55.0227 55.568C53.6627 55.568 52.9747 54.672 52.9747 53.824Z" fill="black"/>
</svg>
