<svg width="32" height="32" viewBox="0 0 32 32" fill="none" xmlns="http://www.w3.org/2000/svg">
<path fill-rule="evenodd" clip-rule="evenodd" d="M27.7 8.88L21.14 2.28L20.44 2H5L4 3V14H6V4H18V11L19 12H26V14H28V9.6L27.7 8.88ZM20 10V4L26 10H20ZM5 16L4 17V29L5 30H27L28 29V17L27 16H5ZM26 26V28H6V18H26V26ZM10 24H9.36V26H8V20H10.12C11.62 20 12.38 20.72 12.38 22C12.3839 22.272 12.3287 22.5417 12.2182 22.7903C12.1077 23.0389 11.9445 23.2606 11.74 23.44C11.2444 23.8263 10.6279 24.0247 10 24ZM9.88 21.1H9.36V22.96H9.88C10.6 22.96 10.96 22.64 10.96 22.02C10.96 21.4 10.6 21.1 9.88 21.1ZM18 25.16C18.2954 24.8691 18.5263 24.5193 18.6779 24.1335C18.8295 23.7476 18.8984 23.3342 18.88 22.92C18.88 20.92 17.82 20 15.68 20H13.56V26H15.68C16.1031 26.0205 16.526 25.9568 16.9242 25.8126C17.3225 25.6684 17.6881 25.4466 18 25.16ZM14.9 24.9V21.1H15.56C15.8151 21.0838 16.0708 21.1198 16.3115 21.2057C16.5522 21.2917 16.7729 21.4259 16.96 21.6C17.1295 21.778 17.2612 21.9885 17.3471 22.2188C17.4331 22.4491 17.4715 22.6945 17.46 22.94C17.49 23.4672 17.3102 23.9848 16.96 24.38C16.7769 24.5552 16.5603 24.6916 16.3231 24.781C16.086 24.8703 15.8332 24.9108 15.58 24.9H14.9ZM23.8 23.68H21.86V26H20.5V20H23.98V21.1H21.86V22.58H23.8V23.68Z" fill="black"/>
</svg>
