<svg width="32" height="32" viewBox="0 0 32 32" fill="none" xmlns="http://www.w3.org/2000/svg">
<path d="M6.67057 26.6665C6.67057 28.1372 7.86657 29.3332 9.33724 29.3332H22.6706C24.1412 29.3332 25.3372 28.1372 25.3372 26.6665V10.6665H28.0039V7.99984H22.6706V5.33317C22.6706 3.8625 21.4746 2.6665 20.0039 2.6665H12.0039C10.5332 2.6665 9.33724 3.8625 9.33724 5.33317V7.99984H4.00391V10.6665H6.67057V26.6665ZM12.0039 5.33317H20.0039V7.99984H12.0039V5.33317ZM10.6706 10.6665H22.6706L22.6719 26.6665H9.33724V10.6665H10.6706Z" fill="black"/>
<path d="M12.0039 13.3335H14.6706V24.0002H12.0039V13.3335ZM17.3372 13.3335H20.0039V24.0002H17.3372V13.3335Z" fill="black"/>
</svg>
