<svg width="67" height="67" viewBox="0 0 67 67" fill="none" xmlns="http://www.w3.org/2000/svg">
<path d="M18.7567 20.3381H23.5871C24.2928 20.3381 24.2949 19.2397 23.5871 19.2397H18.7567C18.0511 19.2397 18.049 20.3381 18.7567 20.3381Z" fill="black"/>
<path d="M30.7803 44.1417V43.0538C30.7803 42.9145 30.7249 42.781 30.6265 42.6825C30.528 42.5841 30.3945 42.5287 30.2552 42.5287C30.116 42.5287 29.9824 42.5841 29.8839 42.6825C29.7855 42.781 29.7302 42.9145 29.7302 43.0538V43.7069C29.7302 43.8519 29.7302 43.9863 29.7302 44.1165H12.8111V21.0313C12.8111 20.2962 12.7334 19.515 12.8111 18.7841C12.9392 17.587 14.6593 17.9251 15.5203 17.9251H27.3717C28.2117 17.9251 29.6189 17.6542 29.6819 18.8492C29.8121 21.4093 29.6819 24.0114 29.6819 26.5737C29.6819 28.3063 29.7029 31.1647 29.7029 31.1647V32.0803C29.7029 32.2213 29.7588 32.3564 29.8585 32.4561C29.9581 32.5557 30.0933 32.6117 30.2342 32.6117C30.3751 32.6117 30.5103 32.5557 30.6099 32.4561C30.7096 32.3564 30.7656 32.2213 30.7656 32.0803V31.4125C30.7656 31.1584 30.7761 19.5696 30.7761 19.5696C30.7761 19.307 30.7866 19.0424 30.7761 18.782C30.774 18.27 30.5723 17.779 30.2138 17.4135C29.8553 17.0479 29.3683 16.8367 28.8565 16.8246C27.7224 16.77 26.5736 16.8246 25.4395 16.8246C21.5815 16.8246 17.7213 16.7784 13.8654 16.8246C12.5003 16.8393 11.7106 17.7445 11.7106 19.0718V44.4126C11.6764 44.4907 11.6587 44.5751 11.6587 44.6604C11.6587 44.7457 11.6764 44.8301 11.7106 44.9083V46.6388C11.7106 47.4558 11.5573 48.5416 12.0067 49.2661C12.7565 50.4716 14.527 50.1608 15.7304 50.1608H28.8565C28.901 50.1616 28.9455 50.1566 28.9888 50.1461C29.4772 50.1025 29.9315 49.8776 30.2623 49.5157C30.5931 49.1538 30.7764 48.6812 30.7761 48.1908C30.7866 47.9157 30.7761 47.6364 30.7761 47.3508L30.7803 44.1417ZM28.8607 49.0624H14.2392C13.7121 49.0624 13.0631 49.1443 12.851 48.4912C12.8041 48.264 12.7907 48.0312 12.8111 47.8002V45.2086H29.7239C29.7239 46.076 29.7008 46.8131 29.6798 47.9493C29.6735 48.4891 29.5475 49.012 28.8607 49.0624Z" fill="#231F20"/>
<path d="M21.5521 48.5142C21.2913 48.5142 21.0363 48.4369 20.8194 48.2919C20.6025 48.147 20.4334 47.941 20.3336 47.7C20.2338 47.459 20.2077 47.1938 20.2586 46.938C20.3094 46.6821 20.4351 46.4471 20.6195 46.2627C20.804 46.0782 21.039 45.9526 21.2948 45.9017C21.5507 45.8508 21.8159 45.8769 22.0569 45.9768C22.2979 46.0766 22.5038 46.2456 22.6488 46.4625C22.7937 46.6794 22.871 46.9344 22.871 47.1953C22.871 47.5451 22.7321 47.8806 22.4847 48.1279C22.2374 48.3753 21.9019 48.5142 21.5521 48.5142ZM21.5521 46.3174C21.378 46.3174 21.2078 46.3691 21.063 46.4659C20.9183 46.5627 20.8055 46.7002 20.7389 46.8611C20.6724 47.022 20.6551 47.1991 20.6892 47.3698C20.7233 47.5406 20.8074 47.6974 20.9306 47.8204C21.0539 47.9434 21.2109 48.027 21.3817 48.0607C21.5526 48.0944 21.7296 48.0767 21.8903 48.0098C22.0511 47.9429 22.1884 47.8297 22.2848 47.6848C22.3813 47.5398 22.4325 47.3694 22.4321 47.1953C22.4315 46.9623 22.3386 46.739 22.1736 46.5744C22.0087 46.4098 21.7852 46.3174 21.5521 46.3174Z" fill="black"/>
<path d="M24.4104 33.941V41.468H23.0369V36.8476C23.0369 36.751 23.0369 36.6376 23.0369 36.5368C23.0369 36.436 23.0516 36.3121 23.0642 36.1987L20.9199 40.2793C20.8726 40.3828 20.7957 40.47 20.6989 40.5298C20.6021 40.5896 20.4897 40.6194 20.376 40.6154H20.1618C20.048 40.6197 19.9355 40.59 19.8386 40.5302C19.7417 40.4704 19.6649 40.383 19.6178 40.2793L17.4546 36.1819C17.4546 36.3016 17.4735 36.4192 17.4798 36.5305C17.4861 36.6418 17.4903 36.7405 17.4903 36.8455V41.4659H16.1126V33.941H17.295C17.3601 33.941 17.4189 33.941 17.4714 33.941C17.5182 33.9436 17.5642 33.9535 17.6079 33.9704C17.6488 33.9866 17.6859 34.0109 17.7171 34.0418C17.7559 34.0831 17.7884 34.1298 17.8138 34.1804L19.9139 38.1938C19.9811 38.3157 20.042 38.4396 20.0988 38.5677C20.1555 38.6958 20.2101 38.8281 20.2626 38.9625C20.3151 38.8239 20.3697 38.6895 20.4264 38.5572C20.4831 38.4249 20.544 38.301 20.6091 38.1791L22.7093 34.1888C22.7346 34.1376 22.7679 34.0908 22.808 34.0502C22.84 34.0192 22.8778 33.995 22.9193 33.9788C22.9623 33.9619 23.0076 33.952 23.0537 33.9494C23.1041 33.9494 23.1629 33.9494 23.2322 33.9494L24.4104 33.941Z" fill="black"/>
<path d="M27.0923 34.5985C27.0929 34.7152 27.0678 34.8307 27.0188 34.9366C26.9708 35.0388 26.9055 35.1319 26.8256 35.2117C26.743 35.2915 26.6461 35.3549 26.5399 35.3987C26.4285 35.4435 26.3094 35.4663 26.1892 35.4659C26.0745 35.4661 25.961 35.4432 25.8553 35.3987C25.752 35.3543 25.6579 35.2909 25.5781 35.2117C25.4988 35.1324 25.4347 35.0391 25.389 34.9366C25.3422 34.83 25.318 34.7149 25.318 34.5985C25.318 34.4821 25.3422 34.3669 25.389 34.2604C25.4336 34.156 25.4978 34.0612 25.5781 33.981C25.6579 33.9019 25.752 33.8385 25.8553 33.7941C25.961 33.7495 26.0745 33.7267 26.1892 33.7269C26.3094 33.7264 26.4285 33.7493 26.5399 33.7941C26.6461 33.8378 26.743 33.9013 26.8256 33.981C26.9065 34.0616 26.972 34.1562 27.0188 34.2604C27.0676 34.3664 27.0927 34.4818 27.0923 34.5985ZM26.9201 41.4682H25.4962V36.1232H26.9264L26.9201 41.4682Z" fill="black"/>
<path d="M35.3041 35.1948H33.1052V41.466H31.5447V35.1948H29.3438V33.9389H35.3041V35.1948Z" fill="black"/>
<path d="M37.3833 34.5985C37.3846 34.7151 37.3602 34.8305 37.3118 34.9366C37.2639 35.0394 37.1977 35.1326 37.1165 35.2117C37.0343 35.292 36.9373 35.3554 36.8309 35.3987C36.7202 35.4435 36.6017 35.4663 36.4823 35.4659C36.3669 35.4661 36.2527 35.4432 36.1462 35.3987C36.0429 35.3543 35.9489 35.2909 35.869 35.2117C35.7897 35.1324 35.7257 35.0391 35.68 34.9366C35.6343 34.8298 35.6107 34.7147 35.6107 34.5985C35.6107 34.4822 35.6343 34.3672 35.68 34.2604C35.7246 34.156 35.7887 34.0612 35.869 33.981C35.9489 33.9019 36.0429 33.8385 36.1462 33.7941C36.2527 33.7495 36.3669 33.7267 36.4823 33.7269C36.6017 33.7265 36.7202 33.7493 36.8309 33.7941C36.9373 33.8373 37.0343 33.9008 37.1165 33.981C37.1987 34.0609 37.265 34.1557 37.3118 34.2604C37.36 34.3665 37.3844 34.4819 37.3833 34.5985ZM37.2131 41.4682H35.7808V36.1232H37.2131V41.4682Z" fill="black"/>
<path d="M39.3154 39.0129C39.318 39.4184 39.4672 39.8093 39.7355 40.1134C39.8615 40.2307 40.0095 40.3217 40.1711 40.3812C40.3326 40.4407 40.5044 40.4675 40.6763 40.4599C40.849 40.4634 41.0212 40.4401 41.1867 40.3906C41.3169 40.3497 41.4434 40.2977 41.5647 40.2352L41.8608 40.0798C41.9413 40.035 42.0314 40.0105 42.1234 40.0084C42.1735 40.0061 42.2234 40.0165 42.2686 40.0385C42.3137 40.0605 42.3526 40.0935 42.3817 40.1344L42.8017 40.6532C42.657 40.8236 42.487 40.9709 42.2977 41.09C42.1199 41.2047 41.9288 41.2971 41.7285 41.3651C41.535 41.432 41.3351 41.4792 41.1321 41.5058C40.9392 41.5312 40.7449 41.5445 40.5503 41.5457C40.192 41.5486 39.8361 41.486 39.5002 41.3609C39.1849 41.2411 38.8985 41.0557 38.6602 40.817C38.4097 40.5612 38.2158 40.2557 38.091 39.9202C37.9445 39.5238 37.8733 39.1036 37.881 38.6811C37.8791 38.3307 37.9403 37.9828 38.0616 37.6541C38.1741 37.342 38.3492 37.0561 38.5762 36.814C38.8086 36.5708 39.088 36.3772 39.3973 36.2449C39.7418 36.1013 40.112 36.0298 40.4852 36.0349C40.8083 36.0314 41.1293 36.0869 41.4324 36.1987C41.7125 36.3019 41.9674 36.4638 42.1801 36.6733C42.3954 36.8911 42.5616 37.1525 42.6673 37.4399C42.7881 37.7708 42.8472 38.121 42.8416 38.4732C42.8425 38.5617 42.8369 38.6501 42.8248 38.7378C42.8181 38.7957 42.801 38.8519 42.7744 38.9037C42.7524 38.9429 42.7175 38.9733 42.6757 38.9898C42.6234 39.0064 42.5688 39.0142 42.514 39.0129H39.3154ZM41.5668 38.1728C41.5669 38.0306 41.5464 37.8891 41.5059 37.7528C41.4682 37.6214 41.4038 37.4992 41.3169 37.3937C41.2275 37.2882 41.1155 37.2043 40.9893 37.148C40.8409 37.0839 40.6803 37.053 40.5188 37.0576C40.3721 37.0491 40.2252 37.0704 40.087 37.1202C39.9487 37.17 39.822 37.2473 39.7145 37.3475C39.5017 37.5798 39.3692 37.8743 39.3364 38.1875L41.5668 38.1728Z" fill="black"/>
<path d="M44.8032 36.7405C44.9085 36.6392 45.02 36.5445 45.1371 36.457C45.2524 36.3698 45.3763 36.2945 45.5067 36.2323C45.6412 36.1693 45.782 36.1207 45.9268 36.0874C46.0874 36.0518 46.2516 36.0342 46.4161 36.0349C46.6815 36.0299 46.945 36.0815 47.189 36.1861C47.4069 36.2822 47.6006 36.4257 47.756 36.6061C47.9151 36.7941 48.0338 37.0129 48.1047 37.2488C48.1851 37.515 48.2248 37.7919 48.2223 38.0699V41.4659H46.7941V38.0699C46.8085 37.8213 46.7341 37.5757 46.5841 37.3769C46.5076 37.2922 46.4128 37.2261 46.3069 37.1835C46.201 37.141 46.0868 37.1231 45.973 37.1312C45.7773 37.1299 45.584 37.1737 45.408 37.2593C45.2222 37.3535 45.0521 37.4761 44.904 37.6226V41.4659H43.4738V36.1231H44.3537C44.4332 36.1171 44.5123 36.1387 44.5777 36.1842C44.6431 36.2297 44.6909 36.2964 44.7129 36.373L44.8032 36.7405Z" fill="black"/>
<path d="M53.8339 33.7332V41.4682H52.9519C52.873 41.4747 52.7944 41.4532 52.7299 41.4075C52.6654 41.3618 52.619 41.2947 52.599 41.2182L52.4793 40.752C52.3745 40.8671 52.2615 40.9745 52.1412 41.0733C52.021 41.1698 51.8915 41.2542 51.7548 41.3253C51.6124 41.3964 51.4623 41.4506 51.3074 41.4871C51.1376 41.5278 50.9634 41.5476 50.7887 41.5459C50.5153 41.5492 50.2451 41.4865 50.0011 41.3631C49.7518 41.2387 49.5358 41.0565 49.3711 40.8318C49.183 40.5733 49.0448 40.282 48.9636 39.9728C48.8609 39.5944 48.8121 39.2034 48.8187 38.8114C48.8149 38.435 48.8695 38.0602 48.9804 37.7004C49.0789 37.3788 49.2363 37.0783 49.4446 36.8141C49.6411 36.5681 49.8891 36.3681 50.1712 36.2282C50.4652 36.0844 50.7891 36.0124 51.1163 36.0182C51.3668 36.0108 51.6162 36.0543 51.8493 36.1463C52.0482 36.2331 52.2313 36.3523 52.3911 36.4991V33.7332H53.8339ZM52.4016 37.5135C52.2841 37.3711 52.1344 37.2588 51.9648 37.1859C51.8047 37.1242 51.6344 37.0928 51.4628 37.0935C51.3 37.0918 51.1388 37.1255 50.9903 37.1922C50.844 37.262 50.7181 37.3683 50.6249 37.5009C50.5134 37.663 50.4335 37.8447 50.3896 38.0365C50.3302 38.2918 50.302 38.5535 50.3056 38.8156C50.3014 39.0694 50.3246 39.3229 50.3749 39.5717C50.4077 39.7502 50.4732 39.9211 50.5682 40.0757C50.6433 40.1951 50.7502 40.2911 50.8769 40.353C51.004 40.4112 51.1424 40.4406 51.2822 40.4391C51.502 40.4459 51.7196 40.3937 51.9123 40.2878C52.0977 40.1779 52.262 40.0356 52.3974 39.8678L52.4016 37.5135Z" fill="black"/>
<path d="M54.6425 36.8604C54.9485 36.5844 55.3051 36.3704 55.6926 36.2303C56.0885 36.0873 56.5067 36.0161 56.9275 36.0203C57.2193 36.0147 57.5092 36.0676 57.7802 36.1757C58.0185 36.2737 58.2333 36.4211 58.4103 36.6083C58.5882 36.7988 58.7247 37.0241 58.8114 37.2699C58.9079 37.5393 58.9555 37.8238 58.9521 38.11V41.4703H58.3011C58.1948 41.4771 58.0886 41.4568 57.9923 41.4115C57.9075 41.356 57.8456 41.2717 57.818 41.1741L57.7046 40.8318C57.5681 40.9494 57.4379 41.0523 57.3119 41.1426C57.1882 41.2336 57.0551 41.311 56.9149 41.3737C56.7756 41.4358 56.6298 41.4823 56.4802 41.5123C56.3107 41.5449 56.1383 41.5604 55.9657 41.5585C55.7473 41.5605 55.5299 41.5294 55.3209 41.4661C55.1368 41.4084 54.9667 41.3133 54.8211 41.1867C54.6786 41.0618 54.5678 40.9049 54.4976 40.7289C54.4174 40.5287 54.3781 40.3145 54.3821 40.0988C54.3847 39.8929 54.4365 39.6905 54.5333 39.5087C54.6565 39.2881 54.8344 39.1029 55.05 38.971C55.3512 38.7864 55.6802 38.6516 56.0245 38.572C56.5252 38.4558 57.0373 38.3959 57.5513 38.3935V38.1184C57.5747 37.8545 57.5 37.5912 57.3413 37.3791C57.2626 37.2979 57.1671 37.2348 57.0616 37.1942C56.9561 37.1536 56.843 37.1364 56.7301 37.1439C56.5629 37.1395 56.3961 37.1629 56.2366 37.2132C56.1177 37.2538 56.0025 37.3044 55.8921 37.3644L55.6149 37.5135C55.5217 37.5622 55.4177 37.5868 55.3125 37.5849C55.2231 37.588 55.1353 37.5614 55.0626 37.5093C54.996 37.46 54.9385 37.3996 54.8925 37.3308L54.6425 36.8604ZM57.5576 39.2315C57.2654 39.243 56.9743 39.2731 56.686 39.3218C56.4954 39.3535 56.3097 39.41 56.1337 39.4898C56.0179 39.542 55.9179 39.6239 55.8438 39.7271C55.7744 39.8408 55.7454 39.9746 55.7614 40.1068C55.7774 40.239 55.8375 40.362 55.932 40.4559C56.0755 40.5504 56.2457 40.596 56.4172 40.5861C56.6307 40.5908 56.8426 40.547 57.0367 40.458C57.2327 40.3579 57.4091 40.2235 57.5576 40.061V39.2315Z" fill="black"/>
<path d="M47.5293 44.9208C47.5328 45.2195 47.4845 45.5165 47.3865 45.7987C47.2972 46.0478 47.1586 46.2764 46.979 46.4707C46.8011 46.6538 46.5864 46.797 46.349 46.8908C45.8286 47.0953 45.2501 47.0953 44.7297 46.8908C44.4919 46.7977 44.277 46.6544 44.0997 46.4707C43.9193 46.2769 43.7807 46.0482 43.6922 45.7987C43.4994 45.23 43.4994 44.6137 43.6922 44.045C43.7801 43.7952 43.9189 43.5664 44.0997 43.373C44.2759 43.1848 44.4908 43.0372 44.7297 42.9403C44.9861 42.8352 45.2612 42.783 45.5383 42.787C45.8158 42.7836 46.0913 42.835 46.349 42.9382C46.5874 43.0358 46.8023 43.1834 46.979 43.3709C47.1587 43.566 47.2973 43.7952 47.3865 44.045C47.4845 44.3265 47.5328 44.6228 47.5293 44.9208ZM47.2184 44.9208C47.2218 44.654 47.1806 44.3886 47.0966 44.1353C47.0236 43.9175 46.9071 43.7167 46.7543 43.5452C46.6068 43.3836 46.4253 43.2566 46.223 43.1734C45.7832 43.0029 45.2955 43.0029 44.8557 43.1734C44.6534 43.2566 44.4719 43.3836 44.3244 43.5452C44.1696 43.716 44.0517 43.9169 43.9779 44.1353C43.8155 44.6464 43.8155 45.1952 43.9779 45.7063C44.0515 45.9241 44.1695 46.1243 44.3244 46.2943C44.4715 46.4559 44.6531 46.5822 44.8557 46.6639C45.296 46.8319 45.7827 46.8319 46.223 46.6639C46.4256 46.5822 46.6072 46.4559 46.7543 46.2943C46.9073 46.1237 47.0238 45.9236 47.0966 45.7063C47.1806 45.453 47.2218 45.1876 47.2184 44.9208Z" fill="black"/>
<path d="M48.4134 44.5869C48.5427 44.4222 48.7024 44.2839 48.8839 44.1794C49.0646 44.076 49.2699 44.023 49.4782 44.0261C49.6218 44.0242 49.7644 44.0498 49.8983 44.1017C50.0161 44.1505 50.1206 44.2268 50.2028 44.3244C50.2877 44.4263 50.35 44.5451 50.3855 44.673C50.4296 44.8222 50.4508 44.9773 50.4485 45.1329V47.0084H50.165V45.1329C50.1782 44.9013 50.1115 44.6722 49.976 44.484C49.9047 44.4032 49.8156 44.3401 49.7157 44.2996C49.6158 44.2591 49.5079 44.2424 49.4005 44.2508C49.2122 44.2503 49.0273 44.3003 48.865 44.3958C48.6918 44.5001 48.5411 44.6379 48.4218 44.8011V47.0084H48.1383V44.0681H48.3042C48.3148 44.067 48.3254 44.068 48.3356 44.0711C48.3457 44.0742 48.3551 44.0794 48.3632 44.0863C48.3712 44.0932 48.3778 44.1016 48.3825 44.1111C48.3871 44.1207 48.3898 44.131 48.3903 44.1416L48.4134 44.5869Z" fill="black"/>
<path d="M51.5532 42.7156H51.2697V47.0105H51.5532V42.7156Z" fill="black"/>
<path d="M52.8322 43.0539C52.8333 43.088 52.8261 43.1219 52.8112 43.1526C52.7972 43.183 52.778 43.2107 52.7545 43.2345C52.7296 43.2577 52.7012 43.2768 52.6705 43.2912C52.639 43.305 52.6051 43.3122 52.5707 43.3122C52.5364 43.3122 52.5024 43.305 52.4709 43.2912C52.4402 43.2768 52.4118 43.2577 52.3869 43.2345C52.3634 43.2112 52.3448 43.1833 52.3323 43.1526C52.3174 43.1219 52.3102 43.088 52.3113 43.0539C52.3125 42.985 52.3395 42.919 52.3869 42.8691C52.4113 42.8453 52.4397 42.826 52.4709 42.8124C52.5024 42.7986 52.5364 42.7914 52.5707 42.7914C52.6051 42.7914 52.639 42.7986 52.6705 42.8124C52.7017 42.826 52.7301 42.8453 52.7545 42.8691C52.7785 42.8932 52.7978 42.9217 52.8112 42.9531C52.8255 42.9847 52.8327 43.0192 52.8322 43.0539ZM52.7125 47.0022H52.431V44.062H52.7146L52.7125 47.0022Z" fill="black"/>
<path d="M53.8339 44.5869C53.9637 44.4227 54.1233 44.2845 54.3044 44.1795C54.4852 44.0762 54.6905 44.0232 54.8987 44.0262C55.0423 44.024 55.185 44.0497 55.3188 44.1018C55.4372 44.1505 55.5424 44.2268 55.6254 44.3244C55.7088 44.4274 55.7709 44.5459 55.8081 44.673C55.8504 44.8226 55.871 44.9775 55.869 45.133V47.0084H55.5918V45.133C55.605 44.9014 55.5383 44.6723 55.4028 44.484C55.3319 44.4032 55.2432 44.3401 55.1437 44.2997C55.0441 44.2592 54.9365 44.2425 54.8294 44.2509C54.6404 44.2499 54.4547 44.3 54.2918 44.3958C54.119 44.5007 53.9685 44.6384 53.8486 44.8011V47.0084H53.5651V44.0682H53.7226C53.733 44.0673 53.7435 44.0685 53.7533 44.0718C53.7632 44.0751 53.7724 44.0803 53.7802 44.0871C53.788 44.094 53.7944 44.1023 53.799 44.1117C53.8035 44.1211 53.8061 44.1313 53.8066 44.1417L53.8339 44.5869Z" fill="black"/>
<path d="M56.7637 45.4248V45.4815C56.76 45.6776 56.7862 45.873 56.8414 46.0612C56.8826 46.2138 56.954 46.3566 57.0514 46.4812C57.1431 46.5925 57.2607 46.6797 57.3937 46.7353C57.5355 46.794 57.6877 46.8233 57.8411 46.8214C57.9708 46.8235 58.1002 46.8072 58.2254 46.7731C58.3198 46.7457 58.4112 46.7092 58.4984 46.6639C58.5594 46.6311 58.6183 46.5947 58.6748 46.5547C58.7007 46.5294 58.7337 46.5126 58.7694 46.5064C58.7809 46.5056 58.7924 46.508 58.8027 46.5131C58.8131 46.5183 58.8218 46.5261 58.8282 46.5358L58.9038 46.6303C58.8508 46.6948 58.7877 46.7501 58.7168 46.7941C58.6357 46.8486 58.5483 46.893 58.4564 46.9264C58.3569 46.9638 58.2543 46.9926 58.1498 47.0126C58.0421 47.0352 57.9323 47.0464 57.8222 47.0462C57.6336 47.0483 57.4465 47.0126 57.2719 46.9411C57.1102 46.8726 56.9665 46.7677 56.8519 46.6345C56.7276 46.4916 56.6346 46.3242 56.5789 46.1431C56.5109 45.9286 56.4782 45.7044 56.4823 45.4794C56.4798 45.2811 56.5104 45.0838 56.5726 44.8956C56.6278 44.7264 56.7164 44.57 56.833 44.4356C56.9483 44.3043 57.0919 44.2009 57.253 44.1332C57.4294 44.0576 57.6198 44.0203 57.8117 44.024C57.9692 44.0217 58.1256 44.051 58.2716 44.1101C58.4114 44.1649 58.5375 44.2494 58.6412 44.3579C58.7503 44.4738 58.834 44.6111 58.887 44.7612C58.9502 44.9368 58.9808 45.1226 58.9773 45.3093C58.9796 45.3404 58.9738 45.3715 58.9605 45.3996C58.953 45.4076 58.9438 45.4138 58.9337 45.4178C58.9235 45.4218 58.9126 45.4235 58.9017 45.4227L56.7637 45.4248ZM58.7231 45.2442C58.7254 45.1015 58.7034 44.9595 58.658 44.8242C58.618 44.7057 58.5536 44.597 58.469 44.5049C58.3862 44.4205 58.2858 44.3552 58.175 44.3138C58.0591 44.2665 57.9348 44.2429 57.8096 44.2445C57.6706 44.2421 57.5325 44.2656 57.4021 44.3138C57.2843 44.3611 57.1777 44.4327 57.0892 44.5238C56.9999 44.6162 56.9287 44.7245 56.8792 44.8431C56.824 44.9774 56.7879 45.1188 56.7721 45.2631L58.7231 45.2442Z" fill="black"/>
<path d="M10.8159 23.6271L8.64014 25.8249V27.6589L8.92576 28.6675L10.0809 29.4929H13.4411L14.9113 27.0924L16.3814 29.4929H20.0567L21.5268 27.0924L22.997 29.4929H24.8667H26.6723L28.0374 27.1974L29.5075 29.5076L33.2879 29.4929L33.9179 28.8775L34.6026 28.1425L34.443 25.9373L31.6077 23.6271L30.2426 22.4132L21.6214 22.2851L12.076 22.157L10.8159 23.6271Z" fill="url(#paint0_linear)"/>
<path d="M35.0457 25.9982L30.0326 21.8251H11.9269L8.04575 26.0066C8.03315 26.0969 7.81893 27.8316 8.92363 29.0329C9.55368 29.7113 10.4379 30.0536 11.5762 30.0536C12.7145 30.0536 13.6049 29.7113 14.2266 29.0329C14.5161 28.7137 14.7382 28.3394 14.8797 27.9324C15.0228 28.3412 15.2479 28.7164 15.5413 29.035C16.1714 29.7134 17.0555 30.0557 18.1917 30.0557C19.3279 30.0557 20.2205 29.7134 20.8422 29.035C21.1319 28.7152 21.354 28.3402 21.4953 27.9324C21.6388 28.3401 21.8623 28.715 22.1527 29.035C22.7827 29.7134 23.6669 30.0557 24.8031 30.0557C25.9393 30.0557 26.834 29.7134 27.4556 29.035C27.7808 28.6728 28.0205 28.2421 28.1571 27.7749C28.2951 28.2424 28.5363 28.673 28.8628 29.035C29.4928 29.7134 30.377 30.0557 31.5153 30.0557C32.6536 30.0557 33.5441 29.7134 34.1657 29.035C35.178 27.9366 35.0835 26.3342 35.0499 25.9982H35.0457ZM13.3718 28.3084C12.977 28.7284 12.3721 28.9552 11.5804 28.9552C10.7886 28.9552 10.1837 28.7452 9.7868 28.3084C9.01603 27.4683 9.17985 26.015 9.18195 25.9982H13.983C14.004 26.2901 14.0565 27.5775 13.3718 28.3084ZM19.9853 28.3084C19.5884 28.7284 18.9856 28.9552 18.1917 28.9552C17.3979 28.9552 16.7951 28.7452 16.3982 28.3084C15.6295 27.4683 15.7912 26.0129 15.7933 25.9982H15.1213H20.5922C20.6132 26.2901 20.6636 27.5775 19.9811 28.3084H19.9853ZM26.5925 28.3084C26.1955 28.7284 25.5928 28.9552 24.7989 28.9552C24.005 28.9552 23.4023 28.7452 23.0074 28.3084C22.2367 27.4683 22.4005 26.0129 22.4026 25.9982H21.7242H27.2036C27.2246 26.2901 27.275 27.5775 26.5925 28.3084ZM11.0847 24.675L12.5044 23.1356H29.5579L31.4481 24.675H11.0847ZM33.3025 28.3084C32.9077 28.7284 32.3029 28.9552 31.5111 28.9552C30.7193 28.9552 30.1145 28.7452 29.7175 28.3084C28.9468 27.4683 29.1106 26.0129 29.1127 25.9982H28.3377H33.9158C33.9368 26.2901 33.9893 27.5775 33.3046 28.3084" fill="black"/>
<defs>
<linearGradient id="paint0_linear" x1="8.9497" y1="25.362" x2="35.0191" y2="25.362" gradientUnits="userSpaceOnUse">
<stop stop-color="#EF413E"/>
<stop offset="0.01" stop-color="#EA4142"/>
<stop offset="0.12" stop-color="#C33E60"/>
<stop offset="0.23" stop-color="#A53C78"/>
<stop offset="0.33" stop-color="#8F3B88"/>
<stop offset="0.43" stop-color="#823A93"/>
<stop offset="0.53" stop-color="#7E3A96"/>
<stop offset="0.62" stop-color="#853893"/>
<stop offset="0.75" stop-color="#98318A"/>
<stop offset="0.9" stop-color="#B6257B"/>
<stop offset="1" stop-color="#CD1D70"/>
</linearGradient>
</defs>
</svg>
